<?xml version="1.0" encoding="utf-8"?>
<!-- Generator: Adobe Illustrator 23.0.3, SVG Export Plug-In . SVG Version: 6.00 Build 0)  -->
<svg version="1.1" id="Ebene_1" xmlns="http://www.w3.org/2000/svg" xmlns:xlink="http://www.w3.org/1999/xlink" x="0px" y="0px"
	 viewBox="0 0 360 300" style="enable-background:new 0 0 360 300;" xml:space="preserve">
<style type="text/css">
	.st0{fill:#FFFAD8;}
	.st1{fill:none;stroke:#F9D5CD;stroke-width:1.252;stroke-miterlimit:10;}
	.st2{fill:#682221;}
	.st3{fill:#FFFFFF;}
	.st4{fill:#F9D5CD;}
	.st5{fill:#182326;}
	.st6{fill:none;stroke:#FFFAD8;stroke-width:1.252;stroke-miterlimit:10;}
	.st7{fill:none;stroke:#FFFAD8;stroke-width:1.254;stroke-miterlimit:10;}
</style>
<g>
	<path class="st0" d="M300.4,150c0,66.5-53.9,120.4-120.4,120.4S59.6,216.5,59.6,150S113.5,29.6,180,29.6S300.4,83.5,300.4,150"/>
	<path class="st1" d="M300.4,150c0,66.5-53.9,120.4-120.4,120.4S59.6,216.5,59.6,150S113.5,29.6,180,29.6S300.4,83.5,300.4,150z"/>
	<path class="st2" d="M284.7,150c0,57.8-46.9,104.7-104.7,104.7c-57.8,0-104.7-46.9-104.7-104.7S122.2,45.3,180,45.3
		C237.8,45.3,284.7,92.2,284.7,150"/>
	<path class="st3" d="M156.6,194.7c0,0.1,0.1,1,0.1,1.2c0,0,3.1-0.4,3.1-0.4c0-0.1-2.6,3.5-3.2,4.5c0,0-0.1,1.4-0.1,1.6
		c0,0.1,6-0.3,6-0.4c0,0-0.3-1.2-0.4-1.4c0-0.1-3.4,0.4-3.4,0.4s2.9-3.9,2.9-4.2c0-0.4-0.3-1.8-0.4-2
		C161.3,193.9,156.6,194.6,156.6,194.7"/>
	<path class="st3" d="M163.2,193.8c0.2,0,2.2,0.1,2.2,0.2c0,0.1,0.2,4.3,0.5,5.5c0.4,1.2,0.8,0.5,0.8,0.4c0.1-0.1,0.2-0.3,0.2-1.5
		c0-1.2,0.2-4,0.2-4.1c0-0.1,1.7,0.2,1.7,0.2s0,2.2,0,2.8c0,2.4,0,4.1-2.2,4.4c-0.9,0.1-2-0.2-2.3-0.6c-0.5-0.6-0.8-2.1-0.9-3.7
		C163.3,195.6,163.1,193.8,163.2,193.8"/>
	<path class="st3" d="M170.3,201.6c0,0,0-2.9-0.1-3.5c0-0.6,0-3.9,0-3.9c0.2-0.1,1.2-0.3,1.2-0.2c0.2,0.4,1.9,4,1.9,4
		s0.8-2.7,1.1-3.4c0,0,1.4-0.3,1.4-0.2c0.1,0.4,0.4,7,0.3,7.1c-0.1,0-1.3,0.3-1.3,0.3c-0.1-0.1-0.3-3.3-0.3-3.3l-1.1,2.4l-1.4-2.2
		c0,0,0.1,3.3,0.1,3.3c0,0-0.7-0.1-1.1-0.2C170.7,201.8,170.3,201.6,170.3,201.6"/>
	<path class="st3" d="M156.1,205c0.1-0.1,2.2-0.8,2.2-0.7c0,0.1,0,1.1,0,2.4c0,2,0.1,3.2,0.1,3.2s0.2,0,1.6,0.1c0,0-0.1-6.3,0-6.4
		c0.1,0,1.2-0.2,2.3,0.2c0,0-0.1,3.7-0.1,4.7c0,1-0.1,4.1-0.2,4.2c0,0.1-2,0.5-2,0.5c0-0.1,0-2,0-2c0,0-1.7,0.2-1.7,0.2
		c0,0,0,2.4,0,2.5c0,0.1-1.3,0.5-2,0.6c-0.1-0.2-0.1-2.9-0.2-6.5C156.2,206.7,156.1,205.1,156.1,205"/>
	<path class="st4" d="M165.4,206.2c0.2,0,1.2-0.2,1-1.4c-0.1-0.9-1.1-0.9-1.5-0.8c-0.4,0.1-1,0.6-0.7,1.5
		C164.5,206.1,165.1,206.2,165.4,206.2"/>
	<path class="st3" d="M164.4,207.1c0.6,0,1.4,0.1,2.1,0.3c0,0,0,2.1-0.4,4.8c0,0-1.4,0.2-1.8,0.3c0,0,0-0.3,0.1-2.2
		C164.4,208.4,164.3,207.1,164.4,207.1"/>
	<path class="st3" d="M168.2,204c0,0,0.6,0,1.7,0.4l2,5.2c0-2.5,0.1-2.5,0.1-3.1c0-0.7,0.1-1.8,0.1-1.8c0,0,0.2,0,0.6,0
		c0.5,0,0.9,0.1,0.9,0.1c0,0,0.1,0.7,0.1,2.6c0,1.2-0.3,5-0.3,5s-1.6,0.1-1.6,0.1c-0.2-0.3-1.6-4.2-1.6-4.2s-0.2,3.6-0.2,4.2
		c0,0.1-1.8,0-1.8,0C168.2,212,168.2,204,168.2,204"/>
	<path class="st3" d="M177.2,206.3c0,0,0,1.4,0.1,3.1c0,0.9-0.1,2.7,0,2.9c0,0.1,1.5,0.1,1.6,0.1c0.1,0,0.5-5.9,0.5-5.9
		s2.2,0.3,2.2,0.2s0.1-1.2,0-1.7c0,0-1.6-0.2-3.1-0.2c-1.5-0.1-3.3-0.1-3.5-0.1c0,0-0.1,1.6,0,1.6
		C175,206.2,177.2,206.3,177.2,206.3"/>
	<path class="st3" d="M182.9,204.7c0,0-0.2,1.1-0.3,3.7c-0.1,2.5-0.1,4.9-0.1,4.9s0.1,0.1,2,0.3c2.4,0.2,2.9,0.2,2.9,0.2
		s0.1-0.8,0-1.6c0,0-0.5-0.1-2.3,0.1c0,0-0.1-2,0-2.2c0-0.1,2,0,2-0.1c0.1-0.6,0.2-1.2,0.2-1.3c0-0.1-2,0.2-2.1,0
		c-0.1-0.2,0-2.8,0-2.8l2.8-0.4c0,0-0.4-1.3-0.5-1.3c-0.1,0-2,0.1-2.8,0.3S183,204.6,182.9,204.7"/>
	<path class="st3" d="M197.4,202.9c0,0,0.4,5.2,0.4,5.5c0,0.2,0.5,5.5,0.5,5.6c0,0.1,4.1-0.4,4.2-0.5c0,0-0.2-1.7-0.3-1.7
		c-0.1,0-1.5,0.3-1.6,0.2c-0.1-0.3-0.2-2.4-0.2-2.4s1.8-0.2,1.8-0.2c0,0-0.2-1.3-0.3-1.3c0,0-1.9,0-1.9-0.1c0-0.1-0.3-2.3-0.3-2.7
		c0-0.4,0-1-0.1-1.1c0,0,0.5,0,1.4,0.2c1,0.2,1.2,0.2,1.2,0.2s0.2-0.8,0.2-1c0-0.2,0-0.5,0-0.5c-0.1,0-0.2-0.1-0.2-0.1
		s-2.5-0.5-4.4-0.4C197.6,202.8,197.4,202.9,197.4,202.9"/>
	<path class="st3" d="M204,203.9c0,0,0.2,5.6,0.3,7.2c0.1,1.5,0.2,2.9,0.2,2.9s1,0,2.1-0.3l-0.2-6.9c0,0,2.4,6.9,2.6,7.2
		c0,0,1.7-0.8,1.7-0.9c0.1-0.4,0.2-10.2,0.2-10.3c0-0.1-1.9-0.5-1.9-0.5c-0.1,0.1-0.1,6.5-0.1,6.5l-2.2-5.6
		C206.8,203.3,205.4,203.3,204,203.9"/>
	<path class="st3" d="M193.6,206.4c0,0.8-0.1,1.7-0.5,2.4c-0.4,0.6-1.2,0.6-1.2,0.6c-0.1-0.2-0.1-1.1-0.1-1.1
		c-0.1-2.2-0.3-3.7-0.3-3.7s0.8-0.2,1.3,0C193.2,204.7,193.6,205.5,193.6,206.4 M196.1,213.4c-0.1-0.8-0.3-2.1-1-2.8
		c-0.7-0.6-1.1-0.7-1.1-0.7s0.3-0.2,0.4-0.4c0.3-0.3,0.8-1.2,1-2.2c0.3-1,0.4-2.3-0.1-3.1c-0.6-1-1.4-1.2-3-1.2
		c-1.1,0-2.9,0.5-2.9,0.5s0,3.2,0,4c0,0.8,0.2,5.9,0.4,6.3c0,0,2.2,0.1,2.2,0c0-0.2-0.1-1.2-0.1-1.8c-0.1-0.6-0.1-1-0.1-1
		c0,0,0.6-0.1,1,0.2c0.9,0.6,0.9,2.8,0.9,3.2c0,0,2.2,0,2.2,0S196.2,214.2,196.1,213.4"/>
	<path class="st3" d="M156.5,217.7c0,0,1.2-0.6,2.5-0.9c1.3-0.3,2.7-0.5,2.7-0.4c0.1,0.1,0.2,3.2,0.1,5.5c-0.2,4.9,0,5.3,0,5.3
		s1.6,0.3,2.9,0.3c0.1,0,0.1-9.6,0-10.1c0-0.2,0-2.2,0-2.2s3.4-0.1,4.6,0.1c0,0,0.1,4.8-0.1,7.4c-0.1,0.8-0.2,3.7-0.1,6.3
		c0.1,2.8,0.3,5.2,0.3,5.2c-0.1,0-4.3-0.2-4.4-0.3c-0.1-0.1-0.2-3.3-0.3-4c0,0-2.8-0.1-2.9,0c-0.1,0.2,0.2,4.1,0,4.2
		c-0.4,0.2-4.4,0.2-5.3-0.3c0,0-0.2-0.9-0.1-3.7c0-1.9,0.1-5.6,0.1-6.4C156.4,222.7,156.3,218.4,156.5,217.7"/>
	<path class="st3" d="M180,217.4c0,0,0.4-2,0.3-2.1c-0.2-0.1-6-0.9-7.7-0.4c0,0-0.7,9.2-0.8,10.9c-0.1,3.4-0.1,8.5,0.1,9
		c0,0,0.7,0,1.8,0c1.1,0,6.2-0.4,6.4-0.4c0,0-0.1-0.9-0.1-1c0-0.1-0.1-1.3-0.1-1.3c-0.4-0.1-3.2,0-3.2,0s-0.3-3.6-0.2-3.8
		c0-0.1,2.5,0.1,2.8,0c0.1,0-0.2-2.4-0.4-2.4c-0.3,0-2.6,0.3-2.6,0.2c0-0.3,0.1-2.9,0.1-4.2c0.1-1.3,0.2-4.8,0.3-4.8
		C176.9,217,180,217.4,180,217.4"/>
	<path class="st3" d="M190.2,219.5c0,0,1.2-0.9,1.7-1.5c0,0-1.3-1.5-3.3-2c-1.4-0.3-3.7-0.3-4.7,0.8c-2.2,2.4-2.2,7.8-1.9,11.6
		c0.4,4.2,2.5,7.1,5.7,7.1c2.5,0,4.3-1.7,4.2-1.8c-0.2-0.2-2-1.4-2-1.3c-0.6,0.6-1.3,0.6-1.9,0.3c-0.5-0.3-0.6-1.5-0.8-3.8
		c-0.2-2.2-0.3-5-0.2-6.4c0.2-2.2,1-4.1,1.6-4C189.3,218.6,190.2,219.5,190.2,219.5"/>
	<path class="st3" d="M199.4,216.6c-0.7-0.1-4.7-0.1-4.9,0c-0.2,0.2,0.2,6.8,0.1,8.3c-0.2,2.6,0,10.3-0.1,10.9c0,0,1.4,0.2,5.2-0.3
		l0.2-5c0,0,0.2-0.2,3.2,0.4c0,0,0,3.6,0.1,5.1c0,0,1.2,0.2,5,0.1c0.2,0-0.4-10.4-0.5-15.2c0-3.7-0.2-4.2-0.2-4.2s-4.9-0.5-5.3-0.4
		c-0.1,0,0-0.2,0.6,7.2c0.1,1.4,0.2,4.3,0.2,4.3l-3.2,0.3C199.9,228,199.6,216.6,199.4,216.6"/>
	<path class="st3" d="M209.3,218.7c0,0,3.2,0,3.4,0.1c0.2,0.1,0.5,7.2,0.4,10c-0.1,1.6-0.3,5-0.4,7.2c0,0,2,0.1,4.5-0.2
		c0,0,0.3-6.5,0.3-8s0.1-7.6,0.2-8.1c0,0,0.3,0.1,3.3,0.8c0,0,0.2-1.2,0.5-2.5c0,0-5.8-1.6-12.2-1.7
		C209.3,216.3,209.2,217.8,209.3,218.7"/>
	<path class="st5" d="M284.5,155.8c0.1-1.9,0.2-3.8,0.2-5.8c0-47.5-31.7-87.6-75-100.4c-13.8,2.3-16.5,10-19.8,12.8
		c-3.3,2.8-13.1,9.4-13.1,9.4l6,5c6,5,16.3,3.2,16.3,3.2s15.2-1.3,15.4,0.5c0.2,1.8-2.7,3.7-6.5,5.9c-3.9,2.2-6.9,5-6.9,5
		s-10.4,9.2-17.9,14.7c-7.5,5.5-27,5.5-35.5,0.7c-8.5-4.9-14.9-7.4-23.3-8.7C116,96.7,87.8,85.2,81.3,85c-6.5-0.2-31.7,0.8-31.7,0.8
		c-1.3,3.5-3.5,13.2-3.5,13.2s-1,8.7,3.2,12.4c4.2,3.7,6.2,8.9,6.2,8.9s5.7,11.9,14.4,17.9c8.7,6,21.1,4.2,21.1,4.2
		s13.1-0.7,17.8,6.4c4.7,7-3.7,8.5-3.7,8.5c-3.2,1.2-7.4,2-8.9,3.4c-3.2,2.9-4,4.4-4.9,6c-0.8,1.7-1.7,0.5-1.8,10.1
		c-0.2,14.1-1.8,12.9-4,17.1c-2.2,4.2-0.8,12.1-0.8,12.1s5,1.7,10.1,1.5c12.6-0.4,22.6-1.3,30-5.7c7.4-4.4,17.9-14.9,17.9-14.9
		s20.4-21.1,31-28.3c10.6-7.2,14.7-5.9,14.7-5.9c11.2,1,25.3,1,25.3,1s6.2-1.2,7.7-0.5c1.5,0.7-1.5,3.7-4.2,7.2
		c-2.7,3.5-7.2,13.7-7.2,13.7s-4.4,8.5-3,10.1c1.3,1.5,7.7,1.2,7.7,1.2s5.5,0.5,6.7,1.7c1.2,1.2,5.5,1.3,5.5,1.3s2.3-0.3,5.2,0.3
		c2.8,0.7,6.4,1.2,10.7-1.2c4.4-2.3,12.9-8.5,21.6-19.3c8.7-10.7,15.4-12.1,18.8-12.4C283.6,155.8,284.1,155.8,284.5,155.8"/>
	<path class="st3" d="M140.1,114.1c0.9-0.6,2.9-3.5-2.7-3.7c-5.5-0.2-15.1-3.2-20.5-5.8c-5.4-2.7-9.2-3.5-18.1-5
		c-8.9-1.5-15.1-5.9-20.4-7.3c-5.3-1.4-10.2-0.8-14.5-1.8c-4.7-1.1-8.6-1-8.5,0.3c0.1,1.3,0.1,0.5,5.8,2.3s12.8,4.2,14.1,4.6
		c1.2,0.4,3.5,0.3,9,2.1c5.5,1.8,13.4,3.2,17.6,5.4c4.3,2.2,6.5,4.6,21,7.4C137.5,115.5,139.1,114.7,140.1,114.1"/>
	<path class="st6" d="M140.1,114.1c0.9-0.6,2.9-3.5-2.7-3.7c-5.5-0.2-15.1-3.2-20.5-5.8c-5.4-2.7-9.2-3.5-18.1-5
		c-8.9-1.5-15.1-5.9-20.4-7.3c-5.3-1.4-10.2-0.8-14.5-1.8c-4.7-1.1-8.6-1-8.5,0.3c0.1,1.3,0.1,0.5,5.8,2.3s12.8,4.2,14.1,4.6
		c1.2,0.4,3.5,0.3,9,2.1c5.5,1.8,13.4,3.2,17.6,5.4c4.3,2.2,6.5,4.6,21,7.4C137.5,115.5,139.1,114.7,140.1,114.1z"/>
	<path class="st3" d="M58.8,96.6c0,0-5.6-2.8-5.6-0.8c0,1.9,4.1,4.6,6.6,5.6c2.5,1,7.1,3.8,14.8,5.7c7.6,1.9,13,4.6,13,4.6
		s2.7,1.2,8.7,2.2c6,1,13.5,1.3,15.5,1c1.4-0.2,4.5-1.8-1.4-2.7s-12.5-3.7-14.7-4.1c-2.1-0.4-5.1-0.3-10.9-2.9
		c-5.8-2.6-9.1-2.9-13.4-4.1C67,100,58.8,96.6,58.8,96.6"/>
	<path class="st6" d="M58.8,96.6c0,0-5.6-2.8-5.6-0.8c0,1.9,4.1,4.6,6.6,5.6c2.5,1,7.1,3.8,14.8,5.7c7.6,1.9,13,4.6,13,4.6
		s2.7,1.2,8.7,2.2c6,1,13.5,1.3,15.5,1c1.4-0.2,4.5-1.8-1.4-2.7s-12.5-3.7-14.7-4.1c-2.1-0.4-5.1-0.3-10.9-2.9
		c-5.8-2.6-9.1-2.9-13.4-4.1C67,100,58.8,96.6,58.8,96.6z"/>
	<path class="st3" d="M108.5,122.3c0,0,5.1,0,3.7-1.7s-6.1-1.7-8.5-1.5s-4.2-0.9-7.1-1.3c-2.1-0.3-1.5,0.3-3.8-0.3
		c-2.2-0.6-4.8-0.1-7-0.8c-2.2-0.7-4.2-1.9-7-2.4c-2.9-0.5-6.4-4.5-6.4-4.5s-4.6-2.8-6.4-3.1c-3.2-0.5-3.1-1.4-4.2-2.1
		c-1.6-0.9-4.1-1.2-6.4-2.7c-1.6-1.1-4.3,0.3-4.5,1.1c-0.2,0.8,1,3,1.5,3.8c0.8,1.3,1.1,1.8,2.8,2.9c1.6,1,1.7,0.3,6.4,3.1
		c4.7,2.8,8.7,4.3,11.4,4.6c2.8,0.3,7.3,0.5,10.6,1.2c2.4,0.5,4.5,2.4,8.5,3.1C96,122.1,108.5,122.3,108.5,122.3"/>
	<path class="st6" d="M108.5,122.3c0,0,5.1,0,3.7-1.7s-6.1-1.7-8.5-1.5s-4.2-0.9-7.1-1.3c-2.1-0.3-1.5,0.3-3.8-0.3
		c-2.2-0.6-4.8-0.1-7-0.8c-2.2-0.7-4.2-1.9-7-2.4c-2.9-0.5-6.4-4.5-6.4-4.5s-4.6-2.8-6.4-3.1c-3.2-0.5-3.1-1.4-4.2-2.1
		c-1.6-0.9-4.1-1.2-6.4-2.7c-1.6-1.1-4.3,0.3-4.5,1.1c-0.2,0.8,1,3,1.5,3.8c0.8,1.3,1.1,1.8,2.8,2.9c1.6,1,1.7,0.3,6.4,3.1
		c4.7,2.8,8.7,4.3,11.4,4.6c2.8,0.3,7.3,0.5,10.6,1.2c2.4,0.5,4.5,2.4,8.5,3.1C96,122.1,108.5,122.3,108.5,122.3z"/>
	<path class="st3" d="M69.3,120c0,0-7-4.7-8.5-4c-1.5,0.7-2.3,1.2-0.4,3.2c1.9,2,2.7,4.7,3.1,5.2c0.5,0.5,1.1,2.6,6.3,2.6
		s9.8-0.6,13.5,1.1s11,1.2,11.6,1.2c0.5,0,4.3-0.9,6-0.6c1.7,0.3,2.4-2.3-0.8-2.9c-2.1-0.4-3.6-1.1-5.9-1.4
		c-1.1-0.1-3.1,0.2-4.1-0.1c-1.2-0.4-3.4-1-5.3-1.3c-2.9-0.5-5.8-0.6-9-0.8C70.6,121.7,69.3,120,69.3,120"/>
	<path class="st6" d="M69.3,120c0,0-7-4.7-8.5-4c-1.5,0.7-2.3,1.2-0.4,3.2c1.9,2,2.7,4.7,3.1,5.2c0.5,0.5,1.1,2.6,6.3,2.6
		s9.8-0.6,13.5,1.1s11,1.2,11.6,1.2c0.5,0,4.3-0.9,6-0.6c1.7,0.3,2.4-2.3-0.8-2.9c-2.1-0.4-3.6-1.1-5.9-1.4
		c-1.1-0.1-3.1,0.2-4.1-0.1c-1.2-0.4-3.4-1-5.3-1.3c-2.9-0.5-5.8-0.6-9-0.8C70.6,121.7,69.3,120,69.3,120z"/>
	<path class="st3" d="M93,132.4c0,0-4.2,0.4-8.9-0.7c-4.7-1.1-8.6,0.6-8.6,1.2c-0.1,0.6-0.8,2,2.4,3.1c3.1,1.1,8,1.3,9.7,1.2
		c1.8-0.1,3.5,0.4,5.4,0.7c1.9,0.3,3.7,0.1,7.3-1.6c3.6-1.7,8.6-2.3,9.2-2.8c0.5-0.5,3.5-0.9,1.5-2.8c-2.1-1.8-15.4,1.4-16.6,1.5
		L93,132.4z"/>
	<path class="st6" d="M93,132.4c0,0-4.2,0.4-8.9-0.7c-4.7-1.1-8.6,0.6-8.6,1.2c-0.1,0.6-0.8,2,2.4,3.1c3.1,1.1,8,1.3,9.7,1.2
		c1.8-0.1,3.5,0.4,5.4,0.7c1.9,0.3,3.7,0.1,7.3-1.6c3.6-1.7,8.6-2.3,9.2-2.8c0.5-0.5,3.5-0.9,1.5-2.8c-2.1-1.8-15.4,1.4-16.6,1.5
		L93,132.4z"/>
	<path class="st3" d="M115.7,137.1c0,0-8.7,0.8-10.2,1.4c-1.5,0.5-4.1,2.2-1,3.6c3.1,1.4,5,2.9,9.6,0.8c5.8-2.6,6.9-4.3,11.3-4.7
		c5.6-0.5,6.3-2.8,4.9-3c-1.5-0.2-1.2,0.3-5.7,0.4c-3,0.1-3.5-0.4-6,0.9C117.1,137.3,115.7,137.1,115.7,137.1"/>
	<path class="st6" d="M115.7,137.1c0,0-8.7,0.8-10.2,1.4c-1.5,0.5-4.1,2.2-1,3.6c3.1,1.4,5,2.9,9.6,0.8c5.8-2.6,6.9-4.3,11.3-4.7
		c5.6-0.5,6.3-2.8,4.9-3c-1.5-0.2-1.2,0.3-5.7,0.4c-3,0.1-3.5-0.4-6,0.9C117.1,137.3,115.7,137.1,115.7,137.1z"/>
	<path class="st3" d="M129.8,140.9c0,0-0.6,0.6-6.1,1.3s-5.6,3.5-6.1,4.4c-0.5,0.9-1.2,1.3-1.3,1.7c-0.1,0.4-0.5,1.9,1.4,1.1
		c2-0.8,5.6-2.9,6.5-3.3c2.9-1.3,5.8-0.4,7.4-2.1c1.6-1.7,1.8-2.8,0.8-3.4C131.3,140,129.8,140.9,129.8,140.9"/>
	<path class="st6" d="M129.8,140.9c0,0-0.6,0.6-6.1,1.3s-5.6,3.5-6.1,4.4c-0.5,0.9-1.2,1.3-1.3,1.7c-0.1,0.4-0.5,1.9,1.4,1.1
		c2-0.8,5.6-2.9,6.5-3.3c2.9-1.3,5.8-0.4,7.4-2.1c1.6-1.7,1.8-2.8,0.8-3.4C131.3,140,129.8,140.9,129.8,140.9z"/>
	<path class="st3" d="M139.2,147.9c0,0,0.7,2-8.9,5.2c0,0-2.1,1-8.1,4.7c-5.9,3.8-11.2,5.6-12,5.3c-0.8-0.3-2.1-0.7,1.8-4.7
		c3.8-4,14.5-8.9,16.3-9.5s2.6-0.1,4.3-1.3c1.8-1.1,3.9-1.2,4.9-1.1C138.6,146.7,138.9,147,139.2,147.9"/>
	<path class="st6" d="M139.2,147.9c0,0,0.7,2-8.9,5.2c0,0-2.1,1-8.1,4.7c-5.9,3.8-11.2,5.6-12,5.3c-0.8-0.3-2.1-0.7,1.8-4.7
		c3.8-4,14.5-8.9,16.3-9.5s2.6-0.1,4.3-1.3c1.8-1.1,3.9-1.2,4.9-1.1C138.6,146.7,138.9,147,139.2,147.9z"/>
	<path class="st3" d="M112.1,167.3c0,0-4.8,2.6-6,4.2c-1.1,1.6-1.1,2.6-2.1,4.2c-0.4,0.7-2.8,1.9-3.3,3.1c-0.5,1.2-0.5,2.9,0,3.4
		c0.4,0.5,1.2,2.3,4.4,1.2c3.2-1.1,1.9-2.6,5.6-4.9c3.7-2.3,6.8-3.9,8.6-5.2c1.7-1.3,6-4.6,7.5-6c1.4-1.4,5.7-4.4,8.3-5.8
		c2.6-1.4,3-2,2.9-2.8c-0.1-0.8-1.8-1.9-5.7,0c-3.9,1.9-4.2,1.6-6.5,1.8c-2.3,0.1-5.7,1.6-7.5,2.8
		C116.3,164.5,112.1,167.3,112.1,167.3"/>
	<path class="st6" d="M112.1,167.3c0,0-4.8,2.6-6,4.2c-1.1,1.6-1.1,2.6-2.1,4.2c-0.4,0.7-2.8,1.9-3.3,3.1c-0.5,1.2-0.5,2.9,0,3.4
		c0.4,0.5,1.2,2.3,4.4,1.2c3.2-1.1,1.9-2.6,5.6-4.9c3.7-2.3,6.8-3.9,8.6-5.2c1.7-1.3,6-4.6,7.5-6c1.4-1.4,5.7-4.4,8.3-5.8
		c2.6-1.4,3-2,2.9-2.8c-0.1-0.8-1.8-1.9-5.7,0c-3.9,1.9-4.2,1.6-6.5,1.8c-2.3,0.1-5.7,1.6-7.5,2.8
		C116.3,164.5,112.1,167.3,112.1,167.3z"/>
	<path class="st3" d="M136.6,172c0,0-0.5-1-3.7,0.3c-3.2,1.4-5,2.5-5.7,2.8c-0.7,0.2-6.1,3.6-7.2,4.6c-1.1,1-3.9,3.6-4.6,4.1
		c-0.7,0.5-2.4,1.4-3.4,2.4c-1,1-3.5,3.8-4.2,4.3c-0.7,0.5-3,1.8-3.8,2c-0.8,0.2-2.9,1.3-3.8,2.6c-1,1.3-0.7,1.9-0.7,2.6
		c0,0.7-0.9,2.2-0.2,3c0.7,0.8,2.8,1.5,3.7,0.8c1-0.7,2.9-1.8,3.9-2.4c1.1-0.5,3.2-1.7,5.1-3.6c1.9-1.9,2.9-1.7,4.4-3.3
		c1.5-1.6,4.2-2.5,5.9-3.7c1.6-1.3,3-3.4,5.3-7.3c2.3-3.9,7.2-6.2,7.7-6.8C136,173.8,136.9,173.6,136.6,172"/>
	<path class="st6" d="M136.6,172c0,0-0.5-1-3.7,0.3c-3.2,1.4-5,2.5-5.7,2.8c-0.7,0.2-6.1,3.6-7.2,4.6c-1.1,1-3.9,3.6-4.6,4.1
		c-0.7,0.5-2.4,1.4-3.4,2.4c-1,1-3.5,3.8-4.2,4.3c-0.7,0.5-3,1.8-3.8,2c-0.8,0.2-2.9,1.3-3.8,2.6c-1,1.3-0.7,1.9-0.7,2.6
		c0,0.7-0.9,2.2-0.2,3c0.7,0.8,2.8,1.5,3.7,0.8c1-0.7,2.9-1.8,3.9-2.4c1.1-0.5,3.2-1.7,5.1-3.6c1.9-1.9,2.9-1.7,4.4-3.3
		c1.5-1.6,4.2-2.5,5.9-3.7c1.6-1.3,3-3.4,5.3-7.3c2.3-3.9,7.2-6.2,7.7-6.8C136,173.8,136.9,173.6,136.6,172z"/>
	<path class="st3" d="M143.4,175.1c0,0-1.8-1.1-4.2,1.5c-2.4,2.6-3.1,4.5-4.1,5.5c-1,1-7,5.7-8,6.4c-1,0.7-3.3,2.6-3.9,4
		c-0.6,1.3-1.2,1.6-1.5,2.3c-0.3,0.7-0.4,2.5,0.4,3c0.8,0.5,1.3,0,4.2-2.5c2.9-2.5,4.8-2.8,6.5-5c1.7-2.2,1.3-2.6,3.2-3.9
		c1.9-1.3,2.5-2.1,4.6-4.9c2-2.8,3.2-4.3,3.2-5.3C143.8,175.5,143.8,175.4,143.4,175.1"/>
	<path class="st6" d="M143.4,175.1c0,0-1.8-1.1-4.2,1.5c-2.4,2.6-3.1,4.5-4.1,5.5c-1,1-7,5.7-8,6.4c-1,0.7-3.3,2.6-3.9,4
		c-0.6,1.3-1.2,1.6-1.5,2.3c-0.3,0.7-0.4,2.5,0.4,3c0.8,0.5,1.3,0,4.2-2.5c2.9-2.5,4.8-2.8,6.5-5c1.7-2.2,1.3-2.6,3.2-3.9
		c1.9-1.3,2.5-2.1,4.6-4.9c2-2.8,3.2-4.3,3.2-5.3C143.8,175.5,143.8,175.4,143.4,175.1z"/>
	<path class="st3" d="M237.6,151.5c-0.2-1-0.6-2.4-7.2,1.6c0,0-3.2,2.3-4.6,3.9c-1.4,1.6-3.7,3-4.3,4.5c-1.1,2.4-2.8,3-3.2,4.2
		c-0.4,1.2-1.5,2.8,1.9,2.7c2.3,0,3.2-3.9,4.5-4.4c1.4-0.5,2.7-1.5,4.3-2.1c1.6-0.6,3.9-2.9,4.6-4.8c0.8-1.9,2.7-1.3,3.3-3.5
		C237.6,151.5,237.8,152.5,237.6,151.5"/>
	<path class="st6" d="M237.6,151.5c-0.2-1-0.6-2.4-7.2,1.6c0,0-3.2,2.3-4.6,3.9c-1.4,1.6-3.7,3-4.3,4.5c-1.1,2.4-2.8,3-3.2,4.2
		c-0.4,1.2-1.5,2.8,1.9,2.7c2.3,0,3.2-3.9,4.5-4.4c1.4-0.5,2.7-1.5,4.3-2.1c1.6-0.6,3.9-2.9,4.6-4.8c0.8-1.9,2.7-1.3,3.3-3.5
		C237.6,151.5,237.8,152.5,237.6,151.5z"/>
	<path class="st3" d="M246.2,155c0,0-1.3,2.9-2.2,4.4s-1.8,3.4-3.8,4.8c-2,1.4-6.4,4.7-8.5,6.7c-2.1,2-4.6,4.8-5.9,6.1
		c-1.3,1.2-4.7,2.8-6,3c-1.3,0.2-4.9,0.5-2.4-4.2c2.5-4.7,5.1-3,13.2-10.5c8.2-7.6,7.9-8.6,9.1-9.7c1.2-1.2,3.3-3.1,5.4-2.8
		C247.2,153.1,246.2,155,246.2,155"/>
	<path class="st6" d="M246.2,155c0,0-1.3,2.9-2.2,4.4s-1.8,3.4-3.8,4.8c-2,1.4-6.4,4.7-8.5,6.7c-2.1,2-4.6,4.8-5.9,6.1
		c-1.3,1.2-4.7,2.8-6,3c-1.3,0.2-4.9,0.5-2.4-4.2c2.5-4.7,5.1-3,13.2-10.5c8.2-7.6,7.9-8.6,9.1-9.7c1.2-1.2,3.3-3.1,5.4-2.8
		C247.2,153.1,246.2,155,246.2,155z"/>
	<path class="st3" d="M251.2,159.9c0,0,0.8-2.3-1.5-1.5c-2.3,0.9-2.3,1.2-3,2.2c-0.7,1-4.7,5.3-5.6,6.4c-1,1.1-4.5,5.6-5.2,6.1
		c-0.7,0.5-2.4,1.9-3.3,3c-1,1.1-3,3.1-1.1,4.1c1.9,1,4.9,0.1,6-0.8c1.2-0.9,3.2-1.8,6-5.6c2.8-3.8,4.2-6.8,4.6-7.7
		c0.4-1,1.7-3.9,2.4-4.5S251.2,159.9,251.2,159.9"/>
	<path class="st6" d="M251.2,159.9c0,0,0.8-2.3-1.5-1.5c-2.3,0.9-2.3,1.2-3,2.2c-0.7,1-4.7,5.3-5.6,6.4c-1,1.1-4.5,5.6-5.2,6.1
		c-0.7,0.5-2.4,1.9-3.3,3c-1,1.1-3,3.1-1.1,4.1c1.9,1,4.9,0.1,6-0.8c1.2-0.9,3.2-1.8,6-5.6c2.8-3.8,4.2-6.8,4.6-7.7
		c0.4-1,1.7-3.9,2.4-4.5S251.2,159.9,251.2,159.9z"/>
	<path class="st3" d="M265.8,155.9c0,0-2.4-1-3.7,0c-1.3,1-2.6,2.4-3.5,3.1c-0.9,0.7-5.3,3.8-5.9,5.1c-0.7,1.3-2.9,4.3-3.3,5.4
		c-0.5,1-1.6,3.6-2.3,4.6c-0.8,1-1.5,1.7-2.4,3.4c-1,1.6-1,2.8,0.3,2.7c1.3-0.1,2.8-0.5,4.5-2.7c1.7-2.1,3.2-4.7,4.6-5.9
		c1.4-1.2,3.2-4.6,4.4-5.8c1.2-1.2,4.4-5.6,6-6.2c1.6-0.6,1.8-1.2,1.9-1.8C266.3,157.3,266.3,156.2,265.8,155.9"/>
	<path class="st6" d="M265.8,155.9c0,0-2.4-1-3.7,0c-1.3,1-2.6,2.4-3.5,3.1c-0.9,0.7-5.3,3.8-5.9,5.1c-0.7,1.3-2.9,4.3-3.3,5.4
		c-0.5,1-1.6,3.6-2.3,4.6c-0.8,1-1.5,1.7-2.4,3.4c-1,1.6-1,2.8,0.3,2.7c1.3-0.1,2.8-0.5,4.5-2.7c1.7-2.1,3.2-4.7,4.6-5.9
		c1.4-1.2,3.2-4.6,4.4-5.8c1.2-1.2,4.4-5.6,6-6.2c1.6-0.6,1.8-1.2,1.9-1.8C266.3,157.3,266.3,156.2,265.8,155.9z"/>
	<path class="st3" d="M154.8,120.1c0,0,5.1-3.6,11.3-3.6c6.3,0,10.2,0.7,11.6,1.9c2.2,1.9-2.5,5,0.6,4.8c9.7-0.6,16.7-3.7,22.8,1.9
		c5,4.7,12.4,8.3,14.9,8.5s6,1.2,7.4,2.7c1.5,1.5,2.8,2.8,4.3,3.4c1.5,0.6,3.6,1.9,3.6,4c0,2.1-2.2,2.7-13.4,2.7
		c-11.2,0-21.9-2.2-32.2,0.4c-5,1.3-21.7,9.8-24.9,12.7c-3.1,2.8-5.8,6-6.6,1.5c-0.7-4.5-1.9-2.7-0.3-8.3c1.6-5.7-7.3-4.3-7.7-8.8
		c-0.4-4.5-0.3-7.7,2.1-12.7c2.4-4.9,0.3-5.7,2.5-7.9C153.2,121.2,154.8,120.1,154.8,120.1"/>
	<path class="st6" d="M154.8,120.1c0,0,5.1-3.6,11.3-3.6c6.3,0,10.2,0.7,11.6,1.9c2.2,1.9-2.5,5,0.6,4.8c9.7-0.6,16.7-3.7,22.8,1.9
		c5,4.7,12.4,8.3,14.9,8.5s6,1.2,7.4,2.7c1.5,1.5,2.8,2.8,4.3,3.4c1.5,0.6,3.6,1.9,3.6,4c0,2.1-2.2,2.7-13.4,2.7
		c-11.2,0-21.9-2.2-32.2,0.4c-5,1.3-21.7,9.8-24.9,12.7c-3.1,2.8-5.8,6-6.6,1.5c-0.7-4.5-1.9-2.7-0.3-8.3c1.6-5.7-7.3-4.3-7.7-8.8
		c-0.4-4.5-0.3-7.7,2.1-12.7c2.4-4.9,0.3-5.7,2.5-7.9C153.2,121.2,154.8,120.1,154.8,120.1z"/>
	<path class="st3" d="M224.3,107.4c-0.9,0.3-0.9,0.6-2,1.3c-1.4,0.8-1.7,0.6-2.4,1.3c-0.2,0.1-0.5,0.7-1.2,1.7
		c-0.6,0.9-0.8,1.2-0.7,1.6c0.1,0.5,0.5,0.7,0.7,0.8c0.2,0.2,0.6,0.4,1.7,0.3c0.9,0,1.1-0.2,2.2-0.4c1.5-0.3,1.4,0,2-0.2
		c1.1-0.4,1.7-1.2,2.4-2c0.5-0.7,1-1.2,1.1-2.2c0.1-0.5,0.3-1.4-0.2-1.9c-0.4-0.4-0.9-0.4-1.9-0.4
		C225.5,107.2,225,107.2,224.3,107.4"/>
	<path class="st6" d="M224.3,107.4c-0.9,0.3-0.9,0.6-2,1.3c-1.4,0.8-1.7,0.6-2.4,1.3c-0.2,0.1-0.5,0.7-1.2,1.7
		c-0.6,0.9-0.8,1.2-0.7,1.6c0.1,0.5,0.5,0.7,0.7,0.8c0.2,0.2,0.6,0.4,1.7,0.3c0.9,0,1.1-0.2,2.2-0.4c1.5-0.3,1.4,0,2-0.2
		c1.1-0.4,1.7-1.2,2.4-2c0.5-0.7,1-1.2,1.1-2.2c0.1-0.5,0.3-1.4-0.2-1.9c-0.4-0.4-0.9-0.4-1.9-0.4
		C225.5,107.2,225,107.2,224.3,107.4z"/>
	<path class="st3" d="M202.9,106.7c0.9-0.9,2-1,3.1-1.2c1.1-0.2,1.9,0,2.4,0.1c0.8,0.2,1.1,0.6,1.1,0.7c0.5,0.6,0.3,1.4,0.3,1.5
		c-0.2,0.9-1.1,1.4-1.7,1.7c-0.9,0.5-1.1,0.3-1.9,0.8c-0.7,0.5-0.7,0.8-1.3,1c-0.6,0.2-1.2,0.1-1.9,0c-0.7-0.1-1.1-0.2-1.3-0.5
		c-0.4-0.5-0.2-1.3-0.1-1.9C201.7,108.5,202,107.5,202.9,106.7"/>
	<path class="st6" d="M202.9,106.7c0.9-0.9,2-1,3.1-1.2c1.1-0.2,1.9,0,2.4,0.1c0.8,0.2,1.1,0.6,1.1,0.7c0.5,0.6,0.3,1.4,0.3,1.5
		c-0.2,0.9-1.1,1.4-1.7,1.7c-0.9,0.5-1.1,0.3-1.9,0.8c-0.7,0.5-0.7,0.8-1.3,1c-0.6,0.2-1.2,0.1-1.9,0c-0.7-0.1-1.1-0.2-1.3-0.5
		c-0.4-0.5-0.2-1.3-0.1-1.9C201.7,108.5,202,107.5,202.9,106.7z"/>
	<path class="st3" d="M214.5,119.9c-0.6,0-0.7,0.3-1.6,0.6c-1.1,0.4-1.2,0.1-2,0.4c-0.3,0.1-1,0.4-1.4,1.2c-0.1,0.3-0.4,0.8-0.2,1.3
		c0.2,0.5,0.6,0.7,0.8,0.8c0.4,0.2,0.8,0.2,1.5,0.1c1.7-0.1,1.6,0.1,2.2-0.1c0.3-0.1,1.1-0.3,1.7-0.9c0.4-0.3,1.1-1,1-1.9
		c0-0.1,0-0.7-0.5-1.2C215.4,119.8,214.7,119.8,214.5,119.9"/>
	<path class="st6" d="M214.5,119.9c-0.6,0-0.7,0.3-1.6,0.6c-1.1,0.4-1.2,0.1-2,0.4c-0.3,0.1-1,0.4-1.4,1.2c-0.1,0.3-0.4,0.8-0.2,1.3
		c0.2,0.5,0.6,0.7,0.8,0.8c0.4,0.2,0.8,0.2,1.5,0.1c1.7-0.1,1.6,0.1,2.2-0.1c0.3-0.1,1.1-0.3,1.7-0.9c0.4-0.3,1.1-1,1-1.9
		c0-0.1,0-0.7-0.5-1.2C215.4,119.8,214.7,119.8,214.5,119.9z"/>
	<path class="st3" d="M185.1,116c1-0.7,1.9-1,2-1.1c0.2-0.1,1.1-0.4,2.2-0.5c1.2-0.1,1.5,0.1,1.7,0.2c0,0,0.6,0.4,0.5,1
		c0,0.5-0.5,0.9-0.9,1.1c-0.6,0.4-0.9,0.4-2.5,0.8c-1,0.3-1.3,0.4-2,0.5c-0.9,0.1-1.2-0.1-1.4-0.3c0,0-0.4-0.4-0.4-0.9
		C184.4,116.5,184.6,116.3,185.1,116"/>
	<path class="st6" d="M185.1,116c1-0.7,1.9-1,2-1.1c0.2-0.1,1.1-0.4,2.2-0.5c1.2-0.1,1.5,0.1,1.7,0.2c0,0,0.6,0.4,0.5,1
		c0,0.5-0.5,0.9-0.9,1.1c-0.6,0.4-0.9,0.4-2.5,0.8c-1,0.3-1.3,0.4-2,0.5c-0.9,0.1-1.2-0.1-1.4-0.3c0,0-0.4-0.4-0.4-0.9
		C184.4,116.5,184.6,116.3,185.1,116z"/>
	<path class="st3" d="M236.2,114.6c-0.9,0.5-1.3,1.1-1.6,1.5c-0.3,0.4-0.7,1-0.9,1.9c-0.1,0.5-0.2,1.2,0.1,1.7
		c0.3,0.4,0.7,0.6,1.3,0.7c1.5,0.3,2.7,0.1,3.6,0c3.8-0.6,3.9-0.5,4.9-0.8c0.2-0.1,1.5-0.5,3-1.4c0.7-0.4,1-0.7,1.1-1.1
		c0.5-1.1-0.3-2.3-0.3-2.4c-0.1-0.2-0.6-1-1.5-1.1c-0.4-0.1-0.8,0.1-1.6,0.4c-0.8,0.3-0.8,0.4-1.3,0.5c-0.3,0.1-0.7,0.2-2.5-0.1
		c-1.7-0.3-1.6-0.4-2.2-0.4C238,114.1,237.1,114.1,236.2,114.6"/>
	<path class="st6" d="M236.2,114.6c-0.9,0.5-1.3,1.1-1.6,1.5c-0.3,0.4-0.7,1-0.9,1.9c-0.1,0.5-0.2,1.2,0.1,1.7
		c0.3,0.4,0.7,0.6,1.3,0.7c1.5,0.3,2.7,0.1,3.6,0c3.8-0.6,3.9-0.5,4.9-0.8c0.2-0.1,1.5-0.5,3-1.4c0.7-0.4,1-0.7,1.1-1.1
		c0.5-1.1-0.3-2.3-0.3-2.4c-0.1-0.2-0.6-1-1.5-1.1c-0.4-0.1-0.8,0.1-1.6,0.4c-0.8,0.3-0.8,0.4-1.3,0.5c-0.3,0.1-0.7,0.2-2.5-0.1
		c-1.7-0.3-1.6-0.4-2.2-0.4C238,114.1,237.1,114.1,236.2,114.6z"/>
	<path class="st3" d="M240.2,125.6c-0.6,0.4-0.9,0.9-1.3,1.6c-0.4,0.7-0.8,1.3-0.7,2.1c0,0.3,0,0.7,0.3,1c0.3,0.4,0.8,0.6,2.3,0.7
		c0.9,0,1.9,0.1,3.4-0.2c0.6-0.1,1.7-0.4,3.1-1c0.5-0.2,1.3-0.8,3.1-2.1c0.2-0.1,0.5-0.3,0.6-0.7c0-0.1,0.2-0.6-0.1-1.1
		c-0.1-0.1-0.3-0.4-0.9-0.7c-0.8-0.3-1.5-0.4-1.9-0.4c-1.2,0-1.7,0.1-2.8,0.1c-1.7,0.1-1.9,0-3,0.1
		C240.9,125.2,240.4,125.5,240.2,125.6"/>
	<path class="st6" d="M240.2,125.6c-0.6,0.4-0.9,0.9-1.3,1.6c-0.4,0.7-0.8,1.3-0.7,2.1c0,0.3,0,0.7,0.3,1c0.3,0.4,0.8,0.6,2.3,0.7
		c0.9,0,1.9,0.1,3.4-0.2c0.6-0.1,1.7-0.4,3.1-1c0.5-0.2,1.3-0.8,3.1-2.1c0.2-0.1,0.5-0.3,0.6-0.7c0-0.1,0.2-0.6-0.1-1.1
		c-0.1-0.1-0.3-0.4-0.9-0.7c-0.8-0.3-1.5-0.4-1.9-0.4c-1.2,0-1.7,0.1-2.8,0.1c-1.7,0.1-1.9,0-3,0.1
		C240.9,125.2,240.4,125.5,240.2,125.6z"/>
	<path class="st3" d="M262.8,116.1c-0.6,0.3-1.5,0.7-2.3,1.6c-0.8,0.9-0.5,1-1.4,2c-0.2,0.2-0.5,0.5-0.5,0.9c0,0.4,0.3,0.8,0.4,0.8
		c0.5,0.5,1.1,0.5,2,0.6c3.1,0.2,3.1,0.2,3.2,0.2c1.1-0.2,1.9-0.7,2.8-1.3c0.9-0.6,1.2-0.9,1.3-1.1c0.2-0.3,0.6-0.9,0.6-1.7
		c0-0.2,0-1.1-0.7-1.9c-0.9-1-2.2-0.9-2.9-0.9C264.4,115.3,263.6,115.7,262.8,116.1"/>
	<path class="st6" d="M262.8,116.1c-0.6,0.3-1.5,0.7-2.3,1.6c-0.8,0.9-0.5,1-1.4,2c-0.2,0.2-0.5,0.5-0.5,0.9c0,0.4,0.3,0.8,0.4,0.8
		c0.5,0.5,1.1,0.5,2,0.6c3.1,0.2,3.1,0.2,3.2,0.2c1.1-0.2,1.9-0.7,2.8-1.3c0.9-0.6,1.2-0.9,1.3-1.1c0.2-0.3,0.6-0.9,0.6-1.7
		c0-0.2,0-1.1-0.7-1.9c-0.9-1-2.2-0.9-2.9-0.9C264.4,115.3,263.6,115.7,262.8,116.1z"/>
	<path class="st3" d="M248.4,97c-0.7,0.2-1.8,0.5-2.9,1.3c-0.4,0.3-1.1,0.9-1.6,2c-0.3,0.6-0.7,1.5-0.4,2.6c0.1,0.3,0.4,1,1.1,1.5
		c1,0.6,2.1,0.3,2.5,0.2c0.8-0.3,0.7-0.6,1.6-1.1c0.7-0.3,0.8-0.2,2.3-0.7c0.9-0.3,1.3-0.4,1.6-0.6c0.8-0.5,0.6-1,1.6-2.1
		c0.7-0.8,0.9-0.7,1.2-1.3c0.2-0.3,0.6-1.2,0.2-2c-0.3-0.7-1-0.9-1.3-1c-0.7-0.2-1.4-0.1-1.9,0.1c-0.5,0.1-0.8,0.3-1.1,0.5
		C250.3,96.9,249.8,96.6,248.4,97"/>
	<path class="st6" d="M248.4,97c-0.7,0.2-1.8,0.5-2.9,1.3c-0.4,0.3-1.1,0.9-1.6,2c-0.3,0.6-0.7,1.5-0.4,2.6c0.1,0.3,0.4,1,1.1,1.5
		c1,0.6,2.1,0.3,2.5,0.2c0.8-0.3,0.7-0.6,1.6-1.1c0.7-0.3,0.8-0.2,2.3-0.7c0.9-0.3,1.3-0.4,1.6-0.6c0.8-0.5,0.6-1,1.6-2.1
		c0.7-0.8,0.9-0.7,1.2-1.3c0.2-0.3,0.6-1.2,0.2-2c-0.3-0.7-1-0.9-1.3-1c-0.7-0.2-1.4-0.1-1.9,0.1c-0.5,0.1-0.8,0.3-1.1,0.5
		C250.3,96.9,249.8,96.6,248.4,97z"/>
	<path class="st3" d="M252.9,139.6c0.8-1.6,1.2-2.5,1.4-2.7c0.8-0.7,1.7-0.9,2.3-1c1.1-0.2,1.3,0,2.3-0.3c0.9-0.3,0.9-0.6,1.7-0.7
		c0.3-0.1,1.1-0.2,2,0.2c0.3,0.2,0.9,0.5,1.1,1.1c0.2,0.7-0.1,1.3-0.3,1.6c-0.3,0.5-0.6,0.7-1.6,1.4c-1.4,0.9-2.1,1.3-2.5,1.5
		c-0.7,0.3-1.5,0.6-2.6,0.7c-1.3,0-1.1-0.4-2.9-0.5c-0.4,0-1,0-1.1-0.4C252.7,140.1,252.8,139.8,252.9,139.6"/>
	<path class="st6" d="M252.9,139.6c0.8-1.6,1.2-2.5,1.4-2.7c0.8-0.7,1.7-0.9,2.3-1c1.1-0.2,1.3,0,2.3-0.3c0.9-0.3,0.9-0.6,1.7-0.7
		c0.3-0.1,1.1-0.2,2,0.2c0.3,0.2,0.9,0.5,1.1,1.1c0.2,0.7-0.1,1.3-0.3,1.6c-0.3,0.5-0.6,0.7-1.6,1.4c-1.4,0.9-2.1,1.3-2.5,1.5
		c-0.7,0.3-1.5,0.6-2.6,0.7c-1.3,0-1.1-0.4-2.9-0.5c-0.4,0-1,0-1.1-0.4C252.7,140.1,252.8,139.8,252.9,139.6z"/>
	<path class="st3" d="M221.4,93c-0.9,0.9-1.2,0.7-1.9,1.4c-0.7,0.8-1,1.7-1.1,2c-0.2,0.8-0.2,1.3-0.2,1.5c0,0.6,0.1,1.1,0.4,1.5
		c0.4,0.5,1,0.6,1.4,0.6c0.2,0,1,0.1,2.6-0.6c1-0.4,1.6-0.9,2.8-1.7c0.7-0.5,1.2-1,1.7-1.5c0.6-0.6,0.8-1,0.9-1.2
		c0.3-0.6,0.4-1.2,0.5-1.5c0.1-0.8,0.2-1.3-0.1-1.5c-0.1-0.1-0.2-0.1-1.3,0.1c-0.9,0.1-1,0.2-1.3,0.2c-0.5,0-0.6-0.3-1.3-0.5
		c-0.3-0.1-1.2-0.4-1.9-0.1C222.1,91.9,222.2,92.2,221.4,93"/>
	<path class="st6" d="M221.4,93c-0.9,0.9-1.2,0.7-1.9,1.4c-0.7,0.8-1,1.7-1.1,2c-0.2,0.8-0.2,1.3-0.2,1.5c0,0.6,0.1,1.1,0.4,1.5
		c0.4,0.5,1,0.6,1.4,0.6c0.2,0,1,0.1,2.6-0.6c1-0.4,1.6-0.9,2.8-1.7c0.7-0.5,1.2-1,1.7-1.5c0.6-0.6,0.8-1,0.9-1.2
		c0.3-0.6,0.4-1.2,0.5-1.5c0.1-0.8,0.2-1.3-0.1-1.5c-0.1-0.1-0.2-0.1-1.3,0.1c-0.9,0.1-1,0.2-1.3,0.2c-0.5,0-0.6-0.3-1.3-0.5
		c-0.3-0.1-1.2-0.4-1.9-0.1C222.1,91.9,222.2,92.2,221.4,93z"/>
	<path class="st3" d="M238.4,77.2c-1.5,0.7-2.3,1-2.9,1.4c-0.7,0.5-1.5,1-2.2,2c-0.5,0.8-0.8,1.5-1,2.2c-0.3,1-0.4,1.5-0.2,2.2
		c0.2,0.5,0.7,0.8,0.8,1c0.6,0.4,1.2,0.3,2.5,0.2c1.8-0.2,2.3-0.3,3.5-0.5c1.8-0.2,2-0.2,2.6-0.5c0.8-0.4,1.2-1,1.7-1.7
		c0.7-0.9,0.6-1.1,1.3-2.1c0.7-0.9,0.9-0.9,1.4-1.7c0.4-0.6,0.9-1.5,0.6-2c-0.3-0.4-1.4-0.3-2-0.2c-0.6,0.1-0.8,0.2-1.1,0.1
		c-0.4-0.2-0.5-0.5-1-0.8c-0.4-0.3-0.9-0.3-1.3-0.4C240.6,76.3,239.9,76.5,238.4,77.2"/>
	<path class="st6" d="M238.4,77.2c-1.5,0.7-2.3,1-2.9,1.4c-0.7,0.5-1.5,1-2.2,2c-0.5,0.8-0.8,1.5-1,2.2c-0.3,1-0.4,1.5-0.2,2.2
		c0.2,0.5,0.7,0.8,0.8,1c0.6,0.4,1.2,0.3,2.5,0.2c1.8-0.2,2.3-0.3,3.5-0.5c1.8-0.2,2-0.2,2.6-0.5c0.8-0.4,1.2-1,1.7-1.7
		c0.7-0.9,0.6-1.1,1.3-2.1c0.7-0.9,0.9-0.9,1.4-1.7c0.4-0.6,0.9-1.5,0.6-2c-0.3-0.4-1.4-0.3-2-0.2c-0.6,0.1-0.8,0.2-1.1,0.1
		c-0.4-0.2-0.5-0.5-1-0.8c-0.4-0.3-0.9-0.3-1.3-0.4C240.6,76.3,239.9,76.5,238.4,77.2z"/>
	<path class="st3" d="M281.6,129c0.3-0.1,0.6-0.1,0.9-0.2c-0.2-1.1-0.5-2.2-0.7-3.2c-1.3-0.3-3.4-0.8-4.1-0.7
		c-0.4,0-1.3,0.1-2.2,0.6c-0.4,0.2-1.3,0.8-1.7,1.8c-0.1,0.3-0.3,0.8-0.1,1.2c0.2,0.4,0.8,0.4,1.1,0.5c2.1,0.2,3.9,0.2,4.3,0.2
		C280.3,129.1,280.8,129.2,281.6,129"/>
	<path class="st6" d="M281.6,129c0.3-0.1,0.6-0.1,0.9-0.2c-0.2-1.1-0.5-2.2-0.7-3.2c-1.3-0.3-3.4-0.8-4.1-0.7
		c-0.4,0-1.3,0.1-2.2,0.6c-0.4,0.2-1.3,0.8-1.7,1.8c-0.1,0.3-0.3,0.8-0.1,1.2c0.2,0.4,0.8,0.4,1.1,0.5c2.1,0.2,3.9,0.2,4.3,0.2
		C280.3,129.1,280.8,129.2,281.6,129z"/>
	<path class="st3" d="M281.2,141.2c0.1,0.4,0.4,0.4,0.5,0.9c0.1,0.5,0,0.6,0.1,0.9c0.2,0.4,0.7,0.5,1.1,0.5c0.6,0.1,0.9,0,1.5-0.1
		c-0.1-1.4-0.2-2.8-0.3-4.1c-0.3,0.1-0.6,0.1-0.9,0.2c-1.1,0.2-1.5,0-1.8,0.3C281.1,140.1,281.1,140.7,281.2,141.2"/>
	<path class="st6" d="M281.2,141.2c0.1,0.4,0.4,0.4,0.5,0.9c0.1,0.5,0,0.6,0.1,0.9c0.2,0.4,0.7,0.5,1.1,0.5c0.6,0.1,0.9,0,1.5-0.1
		c-0.1-1.4-0.2-2.8-0.3-4.1c-0.3,0.1-0.6,0.1-0.9,0.2c-1.1,0.2-1.5,0-1.8,0.3C281.1,140.1,281.1,140.7,281.2,141.2z"/>
	<path class="st3" d="M275.8,115.4c0.4,0.4,1.2,0.3,2.5,0.1c0.2,0,0.4-0.1,0.5-0.1c-0.6-1.7-1.2-3.3-1.9-4.9
		c-0.1,0.1-0.3,0.2-0.5,0.3c-0.7,0.5-1.1,0.8-1.2,1.1c-0.2,0.4-0.1,0.9,0.1,1.9C275.5,114.7,275.6,115.2,275.8,115.4"/>
	<path class="st6" d="M275.8,115.4c0.4,0.4,1.2,0.3,2.5,0.1c0.2,0,0.4-0.1,0.5-0.1c-0.6-1.7-1.2-3.3-1.9-4.9
		c-0.1,0.1-0.3,0.2-0.5,0.3c-0.7,0.5-1.1,0.8-1.2,1.1c-0.2,0.4-0.1,0.9,0.1,1.9C275.5,114.7,275.6,115.2,275.8,115.4z"/>
	<path class="st3" d="M258.8,81.1c-0.3,0-0.7,0-1.3,0.1c-1.4,0.2-1.5,0.3-2.2,0.4c-1.8,0.2-1.9-0.3-3.4-0.1
		c-0.8,0.1-1.9,0.3-2.6,1.1c-0.8,0.9-0.7,2.1-0.7,2.4c0,0.9,0.3,1.1,0.3,2.2c0,0.6-0.1,0.8,0.1,1c0.1,0.2,0.4,0.5,1.8,0.7
		c1.3,0.2,1.9,0.3,2.6,0.1c1.1-0.3,1-0.7,2.2-1c0.9-0.2,1,0,1.9-0.3c0.5-0.2,0.9-0.4,1.5-0.8c0.6-0.4,2.4-1.3,3.1-1.8
		C261,83.7,259.9,82.3,258.8,81.1"/>
	<path class="st6" d="M258.8,81.1c-0.3,0-0.7,0-1.3,0.1c-1.4,0.2-1.5,0.3-2.2,0.4c-1.8,0.2-1.9-0.3-3.4-0.1
		c-0.8,0.1-1.9,0.3-2.6,1.1c-0.8,0.9-0.7,2.1-0.7,2.4c0,0.9,0.3,1.1,0.3,2.2c0,0.6-0.1,0.8,0.1,1c0.1,0.2,0.4,0.5,1.8,0.7
		c1.3,0.2,1.9,0.3,2.6,0.1c1.1-0.3,1-0.7,2.2-1c0.9-0.2,1,0,1.9-0.3c0.5-0.2,0.9-0.4,1.5-0.8c0.6-0.4,2.4-1.3,3.1-1.8
		C261,83.7,259.9,82.3,258.8,81.1z"/>
	<path class="st3" d="M270.2,96.9c-0.6,0.1-1.1,0.3-1.7,0.6c-0.8,0.4-1.3,0.9-1.7,1.3c-0.9,0.9-1,1.3-1,1.4c0,0.1-0.1,0.8,0.2,1.4
		c0.3,0.5,0.7,0.6,1.9,1c1.5,0.5,2.3,0.7,2.6,0.8c1.2,0.2,2.3,0,3.1-0.2C272.6,101.1,271.4,99,270.2,96.9"/>
	<path class="st6" d="M270.2,96.9c-0.6,0.1-1.1,0.3-1.7,0.6c-0.8,0.4-1.3,0.9-1.7,1.3c-0.9,0.9-1,1.3-1,1.4c0,0.1-0.1,0.8,0.2,1.4
		c0.3,0.5,0.7,0.6,1.9,1c1.5,0.5,2.3,0.7,2.6,0.8c1.2,0.2,2.3,0,3.1-0.2C272.6,101.1,271.4,99,270.2,96.9z"/>
	<path class="st3" d="M54.7,89c-0.1,0-0.2,0-0.4,0.1c-0.1,0-0.2,0.1-0.3,0.2c-0.1,0.1-0.2,0.2-0.2,0.3c-0.1,0.3-0.2,0.5-0.1,0.8
		c0,0.3,0.2,0.8,0.3,1.4l0,0c-0.3-0.2-0.6-0.2-0.8-0.1c-0.2,0.1-0.4,0.2-0.5,0.5c-0.1,0.2-0.1,0.4-0.2,0.6c0,0.3-0.1,0.6-0.1,0.9
		l0.3,0.3c0-0.1,0-0.2,0.1-0.3c0-0.1,0.1-0.3,0.1-0.3c0.1-0.2,0.2-0.3,0.3-0.4c0.1,0,0.3,0,0.5,0.1c0.1,0,0.2,0.1,0.4,0.2
		c0.2,0.1,0.3,0.2,0.4,0.3l3.3,2.5l0.5-1.1l-3.6-2.8c-0.1-0.3-0.2-0.6-0.3-0.9c-0.1-0.3-0.1-0.5-0.1-0.6c0-0.2,0-0.3,0-0.4
		c0-0.1,0-0.2,0.1-0.2c0.1,0.1,0.2,0.3,0.4,0.4c0.1,0.1,0.2,0.2,0.4,0.3c0.1,0.1,0.3,0.1,0.4,0c0.1-0.1,0.3-0.2,0.4-0.4
		c0.1-0.1,0.1-0.3,0.1-0.4c0-0.1-0.1-0.2-0.1-0.3c-0.1-0.1-0.1-0.2-0.3-0.3c-0.1-0.1-0.2-0.2-0.3-0.2C55,89,54.8,89,54.7,89
		 M54.3,97.4c0.4,0.3,0.7,0.5,1,0.8c0.3,0.3,0.5,0.6,0.6,1c0.1,0.4,0.1,0.7,0,1c-0.2,0.4-0.4,0.6-0.8,0.7c-0.4,0.1-0.8,0-1.4-0.2
		c-0.3-0.1-0.7-0.3-1.1-0.6c-0.4-0.2-0.7-0.5-1-0.8c-0.4-0.4-0.6-0.8-0.7-1.1c-0.1-0.4-0.1-0.7,0.1-1c0.1-0.4,0.4-0.6,0.8-0.7
		c0.4-0.1,0.8,0,1.3,0.2C53.5,97,53.9,97.2,54.3,97.4 M51.9,95.6c-0.6,0.2-1,0.7-1.3,1.4c-0.2,0.5-0.3,1-0.2,1.5
		c0,0.5,0.2,1,0.4,1.4c0.2,0.4,0.5,0.8,0.9,1.2c0.4,0.3,0.8,0.6,1.3,0.8c0.7,0.3,1.3,0.3,1.9,0.1c0.6-0.2,1-0.7,1.2-1.3
		c0.2-0.6,0.3-1.1,0.3-1.6c0-0.5-0.2-1-0.4-1.4c-0.2-0.4-0.5-0.8-0.9-1.2c-0.4-0.3-0.8-0.6-1.3-0.8C53.1,95.4,52.4,95.4,51.9,95.6"
		/>
	<path class="st5" d="M124.4,98c-8.4-1.3-36.6-12.9-43.1-13.1c-6.5-0.2-31.7,0.8-31.7,0.8C48.2,89.3,46,99,46,99s-1,8.7,3.2,12.4
		c4.2,3.7,6.2,8.9,6.2,8.9s5.7,11.9,14.4,18c8.7,6,21.1,4.2,21.1,4.2S132.7,99.4,124.4,98"/>
	<path class="st3" d="M140.1,114.1c0.9-0.6,2.9-3.5-2.7-3.7c-5.5-0.2-15.1-3.2-20.5-5.8c-5.4-2.7-9.2-3.5-18.1-5
		c-8.9-1.5-15.1-5.9-20.4-7.4c-5.3-1.4-10.2-0.8-14.5-1.8c-4.7-1.1-8.6-1-8.5,0.3c0.1,1.3,0.1,0.5,5.8,2.3
		c5.7,1.8,12.9,4.2,14.1,4.6c1.2,0.4,3.5,0.3,9,2.1c5.5,1.8,13.4,3.2,17.7,5.4c4.3,2.2,6.5,4.6,21,7.5
		C137.5,115.5,139.2,114.7,140.1,114.1"/>
	<path class="st7" d="M140.1,114.1c0.9-0.6,2.9-3.5-2.7-3.7c-5.5-0.2-15.1-3.2-20.5-5.8c-5.4-2.7-9.2-3.5-18.1-5
		c-8.9-1.5-15.1-5.9-20.4-7.4c-5.3-1.4-10.2-0.8-14.5-1.8c-4.7-1.1-8.6-1-8.5,0.3c0.1,1.3,0.1,0.5,5.8,2.3
		c5.7,1.8,12.9,4.2,14.1,4.6c1.2,0.4,3.5,0.3,9,2.1c5.5,1.8,13.4,3.2,17.7,5.4c4.3,2.2,6.5,4.6,21,7.5
		C137.5,115.5,139.2,114.7,140.1,114.1z"/>
	<path class="st3" d="M58.7,96.5c0,0-5.6-2.8-5.6-0.8c0,1.9,4.1,4.6,6.6,5.6c2.6,1,7.1,3.8,14.8,5.7c7.7,1.9,13,4.6,13,4.6
		s2.7,1.2,8.7,2.2c6,1,13.5,1.3,15.5,1c1.4-0.2,4.5-1.8-1.4-2.7c-5.9-0.8-12.6-3.7-14.7-4.1c-2.1-0.4-5.1-0.3-10.9-2.9
		c-5.8-2.6-9.1-2.9-13.4-4.1C67,100,58.7,96.5,58.7,96.5"/>
	<path class="st7" d="M58.7,96.5c0,0-5.6-2.8-5.6-0.8c0,1.9,4.1,4.6,6.6,5.6c2.6,1,7.1,3.8,14.8,5.7c7.7,1.9,13,4.6,13,4.6
		s2.7,1.2,8.7,2.2c6,1,13.5,1.3,15.5,1c1.4-0.2,4.5-1.8-1.4-2.7c-5.9-0.8-12.6-3.7-14.7-4.1c-2.1-0.4-5.1-0.3-10.9-2.9
		c-5.8-2.6-9.1-2.9-13.4-4.1C67,100,58.7,96.5,58.7,96.5z"/>
	<path class="st3" d="M108.5,122.2c0,0,5.1,0,3.7-1.7c-1.4-1.7-6.1-1.7-8.5-1.5c-2.3,0.2-4.2-0.9-7.1-1.3c-2.1-0.3-1.5,0.3-3.8-0.3
		c-2.2-0.6-4.8-0.1-7-0.8c-2.2-0.7-4.2-1.9-7-2.5c-2.9-0.5-6.4-4.5-6.4-4.5s-4.6-2.8-6.4-3.1c-3.2-0.5-3.1-1.4-4.2-2.1
		c-1.6-0.9-4.1-1.2-6.4-2.7c-1.6-1.1-4.3,0.3-4.5,1.1c-0.2,0.8,1,3,1.5,3.8c0.8,1.3,1.1,1.8,2.8,2.9c1.6,1,1.7,0.3,6.4,3.1
		c4.7,2.8,8.7,4.3,11.4,4.6c2.8,0.3,7.4,0.5,10.6,1.2c2.4,0.5,4.5,2.4,8.5,3.1C96,122,108.5,122.2,108.5,122.2"/>
	<path class="st7" d="M108.5,122.2c0,0,5.1,0,3.7-1.7c-1.4-1.7-6.1-1.7-8.5-1.5c-2.3,0.2-4.2-0.9-7.1-1.3c-2.1-0.3-1.5,0.3-3.8-0.3
		c-2.2-0.6-4.8-0.1-7-0.8c-2.2-0.7-4.2-1.9-7-2.5c-2.9-0.5-6.4-4.5-6.4-4.5s-4.6-2.8-6.4-3.1c-3.2-0.5-3.1-1.4-4.2-2.1
		c-1.6-0.9-4.1-1.2-6.4-2.7c-1.6-1.1-4.3,0.3-4.5,1.1c-0.2,0.8,1,3,1.5,3.8c0.8,1.3,1.1,1.8,2.8,2.9c1.6,1,1.7,0.3,6.4,3.1
		c4.7,2.8,8.7,4.3,11.4,4.6c2.8,0.3,7.4,0.5,10.6,1.2c2.4,0.5,4.5,2.4,8.5,3.1C96,122,108.5,122.2,108.5,122.2z"/>
	<path class="st3" d="M69.3,119.9c0,0-7-4.7-8.5-4c-1.5,0.7-2.3,1.2-0.4,3.2c1.9,2,2.7,4.7,3.1,5.2c0.5,0.5,1.1,2.6,6.4,2.6
		c5.3,0,9.8-0.6,13.6,1.1c3.8,1.7,11,1.2,11.6,1.2c0.5,0,4.3-0.9,6-0.6c1.7,0.3,2.4-2.3-0.8-2.9c-2.1-0.4-3.6-1.1-5.9-1.4
		c-1.1-0.1-3.1,0.2-4.1-0.1c-1.2-0.4-3.4-1-5.3-1.3c-2.9-0.5-5.8-0.6-9-0.8C70.5,121.7,69.3,119.9,69.3,119.9"/>
	<path class="st7" d="M69.3,119.9c0,0-7-4.7-8.5-4c-1.5,0.7-2.3,1.2-0.4,3.2c1.9,2,2.7,4.7,3.1,5.2c0.5,0.5,1.1,2.6,6.4,2.6
		c5.3,0,9.8-0.6,13.6,1.1c3.8,1.7,11,1.2,11.6,1.2c0.5,0,4.3-0.9,6-0.6c1.7,0.3,2.4-2.3-0.8-2.9c-2.1-0.4-3.6-1.1-5.9-1.4
		c-1.1-0.1-3.1,0.2-4.1-0.1c-1.2-0.4-3.4-1-5.3-1.3c-2.9-0.5-5.8-0.6-9-0.8C70.5,121.7,69.3,119.9,69.3,119.9z"/>
	<path class="st3" d="M93,132.4c0,0-4.2,0.4-9-0.7c-4.7-1.1-8.6,0.6-8.7,1.2c-0.1,0.6-0.8,2,2.4,3.1c3.1,1.1,8,1.3,9.7,1.2
		c1.8-0.1,3.5,0.4,5.4,0.7c1.9,0.3,3.7,0.1,7.3-1.6c3.6-1.7,8.7-2.3,9.2-2.8c0.5-0.5,3.5-0.9,1.5-2.8c-2.1-1.8-15.4,1.4-16.6,1.5
		L93,132.4z"/>
	<path class="st7" d="M93,132.4c0,0-4.2,0.4-9-0.7c-4.7-1.1-8.6,0.6-8.7,1.2c-0.1,0.6-0.8,2,2.4,3.1c3.1,1.1,8,1.3,9.7,1.2
		c1.8-0.1,3.5,0.4,5.4,0.7c1.9,0.3,3.7,0.1,7.3-1.6c3.6-1.7,8.7-2.3,9.2-2.8c0.5-0.5,3.5-0.9,1.5-2.8c-2.1-1.8-15.4,1.4-16.6,1.5
		L93,132.4z"/>
	<path class="st3" d="M151.2,281c0,0.7-0.5,1.2-1.2,1.2c-0.7,0-1.2-0.6-1.2-1.2c0-0.7,0.6-1.2,1.2-1.2
		C150.6,279.8,151.2,280.4,151.2,281"/>
	<path class="st3" d="M113.2,24.3c0.4-0.2,1.1-0.6,2-1.1c1-0.5,1.5-0.7,1.6-0.7l0.2,0l0.5,1c0.3,0.7,0.5,1.1,0.5,1.1
		c-0.1,0.2-1.1,0.8-3.3,1.8c-1.8,0.9-2.7,1.4-2.8,1.6c0,0,0.2,0.4,0.5,1.2l0.6,1.1l0.9-0.5c3.2-1.6,4.8-2.5,4.9-2.4
		c0,0,0.2,0.4,0.5,1l0.5,1l-0.5,0.3c-0.4,0.2-1.1,0.6-2.3,1.3c-1.2,0.7-1.9,1.1-2,1.2l-0.3,0.2l0.3,0.6c0.2,0.4,0.4,0.9,0.6,1.3
		l0.3,0.7l0.1,0c0.1,0,1.1-0.6,3.2-1.6l3-1.6l0.1,0.1c0.1,0.1,0.2,0.3,0.3,0.6c0.1,0.4,0.2,0.7,0.4,1.1l0.2,0.5l-0.3,0.2
		c-0.3,0.2-0.8,0.5-1.6,0.9c-0.8,0.4-1.5,0.8-2.1,1c-0.8,0.3-1.7,0.8-2.8,1.4c-1.1,0.6-1.7,0.9-1.7,0.9c-0.1,0-0.2-0.1-0.3-0.4
		c-0.2-0.2-0.5-0.7-0.9-1.5c-0.7-1.1-1.6-3-2.9-5.6c-1.3-2.6-2-3.9-1.9-4c0,0,0.7-0.4,2.2-1.2C112,25,112.9,24.5,113.2,24.3"/>
	<path class="st3" d="M128.7,17.2c0,0,0.3-0.1,0.7-0.3c0.4-0.1,0.8-0.2,1-0.3c0.4-0.1,0.7-0.1,1-0.1c0.3,0,0.6,0.1,0.9,0.3
		c0.6,0.3,1.1,0.7,1.5,1.3c0.2,0.2,0.3,0.5,0.5,1c0.2,0.4,0.2,0.8,0.3,1.1c0.1,0.8-0.2,1.5-0.7,2.2l-0.2,0.3l0.2,0
		c0.1,0,0.2,0,0.5,0.1c0.9,0.2,1.6,1.1,2.2,2.7c0.2,0.6,0.4,1,0.6,1.3c0.2,0.3,0.4,0.4,0.6,0.5c0.1,0.1,0.2,0.1,0.2,0.3
		c0,0.1,0.1,0.2,0.1,0.2c0,0,0,0.1-0.1,0.1c-0.1,0.1-0.6,0.3-1.4,0.6c-0.6,0.2-1,0.4-1.1,0.4c-0.1,0-0.2,0-0.2,0
		c-0.3-0.4-0.6-1.1-1-2.1c-0.3-0.8-0.6-1.3-0.8-1.5c-0.2-0.3-0.5-0.4-0.9-0.5c-0.2,0-0.4,0-0.7,0.1c-0.3,0.1-1,0.3-2,0.6l-0.9,0.3
		l0.5,1.2c0.3,0.7,0.6,1.5,0.8,2.2c0.3,0.8,0.4,1.2,0.4,1.2c0,0-0.4,0.2-1.3,0.6l-1.3,0.5l-0.4-1.1c-0.3-0.7-0.5-1.3-0.6-1.7
		c-0.2-0.7-1-2.8-2.4-6.5l-1.1-2.9l0.2-0.1c0.1-0.1,1-0.5,2.8-1.1C127.8,17.6,128.7,17.3,128.7,17.2 M128.9,19.8
		c-0.7,0.2-1.2,0.4-1.8,0.6l-0.6,0.2l0.6,1.6c0.4,1,0.7,1.6,0.7,1.6c0.1,0,0.5-0.1,1.2-0.4c0.8-0.3,1.3-0.6,1.7-0.8
		c0.4-0.2,0.7-0.4,0.8-0.5c0.2-0.2,0.3-0.5,0.4-0.9c0-0.2,0-0.5-0.1-0.8c-0.1-0.3-0.2-0.5-0.3-0.6c-0.1-0.1-0.3-0.2-0.5-0.3
		c-0.2-0.1-0.5-0.1-0.7-0.1C130,19.4,129.6,19.5,128.9,19.8"/>
	<path class="st3" d="M144.3,12c0.8-0.3,1.6-0.4,2.4-0.5c0.5,0,0.9,0,1.2,0c0.3,0,0.6,0.1,0.9,0.3c0.7,0.3,1.2,0.6,1.5,0.8
		c0.7,0.6,1.1,1.1,1.3,1.4c0.2,0.4,0.5,1.1,0.8,2.1c0.3,0.9,0.4,1.8,0.5,2.6c0.1,0.9,0,1.6-0.2,2.1c-0.1,0.4-0.2,0.7-0.3,0.8
		c-0.2,0.7-0.6,1.3-1.2,1.8c-0.6,0.5-1.1,0.9-1.6,1.1c-0.3,0.2-0.8,0.3-1.4,0.5c-0.5,0.1-0.9,0.2-1.2,0.2c-0.3,0-0.7,0-1.1,0
		c-0.4,0-0.9-0.1-1.5-0.3c-0.1,0-0.3-0.2-0.6-0.3c-0.3-0.2-0.5-0.3-0.7-0.5c-0.5-0.4-0.9-0.9-1.3-1.5c-0.4-0.6-0.7-1.2-0.9-1.7
		c-0.1-0.4-0.3-0.9-0.4-1.6c-0.2-0.8-0.2-1.4-0.2-1.9c0-0.5,0.1-1.1,0.3-1.7c0.4-1.4,1.2-2.5,2.4-3.2
		C143.3,12.3,143.7,12.2,144.3,12 M141.6,9.1c0.1-0.1,0.5-0.2,1.1-0.3l1-0.2l0.2,1c0.2,0.7,0.2,1,0.2,1.1c0,0-0.4,0.1-1.1,0.3
		c-0.7,0.2-1.1,0.3-1.1,0.3c0,0-0.1-0.4-0.3-1.1l-0.2-1L141.6,9.1z M146.5,13.9c-0.5,0-1.1,0.1-1.6,0.4c-0.5,0.3-0.9,0.7-1.2,1.1
		c-0.2,0.3-0.3,0.6-0.4,1c-0.2,1-0.1,2.1,0.2,3.4c0.2,0.7,0.5,1.4,0.9,1.9c0.1,0.2,0.4,0.3,0.6,0.5c0.3,0.2,0.6,0.3,0.9,0.4
		c0.3,0.1,0.6,0.2,0.9,0.2c0.3,0,0.6,0,1-0.1c0.3-0.1,0.5-0.1,0.6-0.2c0.1,0,0.2-0.1,0.4-0.3c1.1-0.8,1.6-2.1,1.4-3.9
		c-0.1-0.6-0.2-1.2-0.5-1.9c-0.3-0.6-0.7-1.2-1.1-1.7c-0.3-0.3-0.6-0.6-0.9-0.7C147.3,14,146.9,13.9,146.5,13.9 M145.3,8.3
		c1-0.3,1.5-0.4,1.7-0.4c0.1,0,0.1,0,0.1,0.1c0,0,0.1,0.2,0.2,0.5c0.1,0.3,0.2,0.7,0.2,1l0.1,0.4l-1.2,0.3l-1.2,0.3l-0.3-1l-0.2-1
		L145.3,8.3z"/>
	<path class="st3" d="M157.4,9.3c0,0,0.4-0.1,1.1-0.1c0.8-0.1,2.3-0.2,4.6-0.5l3.6-0.4l0.1,0.2c0.1,0.3,0.1,0.7,0.2,1.2
		c0.1,0.6,0.1,0.9,0.1,0.9c0,0-0.3,0.1-0.9,0.1c-0.6,0-1.2,0.1-2,0.2c-0.7,0.1-1.5,0.2-2.3,0.3l-1.2,0.1l0.1,0.2
		c0,0.1,0.1,0.6,0.2,1.4l0.1,1.2l0.9-0.1c0.7-0.1,1.6-0.2,2.7-0.3l1.8-0.2l0.1,0.5c0.1,0.4,0.1,0.7,0.2,1.1c0,0.4,0.1,0.6,0,0.6
		c0,0-1,0.2-2.8,0.4l-2.8,0.3l0.3,2.5c0.2,1.6,0.3,2.5,0.4,2.6c0,0.1,0.1,0.2,0,0.2c0,0.1-0.3,0.1-0.9,0.2c-0.6,0.1-1,0.2-1.4,0.2
		l-0.6,0.1l-0.1-0.9c-0.2-1.1-0.4-2.6-0.6-4.6c-0.3-2-0.4-3.3-0.4-3.7c-0.1-0.6-0.1-1.2-0.2-1.8c-0.1-0.4-0.1-0.8-0.1-1.2
		C157.4,9.7,157.4,9.4,157.4,9.3 M159.7,19.3c0-0.1,0-0.2,0-0.2c0,0,0,0,0,0c0,0,0,0.1,0,0.1L159.7,19.3z"/>
	<path class="st3" d="M173.1,7.8c0,0,0.4,0,1.1,0c0.8,0,2.3,0,4.7,0l3.6,0l0,0.2c0,0.3,0.1,0.7,0.1,1.3c0,0.6,0,0.9,0,0.9
		c0,0-0.3,0-0.9,0c-0.6,0-1.2,0-2,0c-0.7,0-1.5,0.1-2.3,0.1l-1.2,0l0,0.2c0,0.1,0,0.6,0.1,1.5l0,1.2l0.9,0c0.7,0,1.6,0,2.7,0l1.8,0
		l0,0.5c0,0.4,0,0.7,0.1,1.1c0,0.4,0,0.6,0,0.6c0,0-1,0.1-2.9,0.1l-2.8,0l0.1,2.5c0,1.6,0.1,2.5,0.1,2.6c0,0.1,0,0.2,0,0.2
		c0,0-0.3,0.1-0.9,0.1c-0.6,0.1-1,0.1-1.4,0.1l-0.6,0l-0.1-0.9c-0.1-1.1-0.1-2.6-0.2-4.7c-0.1-2-0.1-3.3-0.1-3.7
		c0-0.6,0-1.3-0.1-1.8c0-0.4,0-0.8,0-1.2C173,8.1,173,7.9,173.1,7.8 M174.4,18c0-0.1,0-0.2,0-0.2c0,0,0,0,0,0c0,0,0,0.1,0,0.1
		L174.4,18z"/>
	<path class="st3" d="M189.7,7.8c0.9,0,1.5,0.1,2,0.2l0.3,0.1l0.4,0.9c0.3,0.6,0.8,1.8,1.4,3.4c1,2.5,1.7,4,2,4.6l0.1,0.3l0.1-1.1
		c0.1-0.9,0.2-2.1,0.4-3.7c0.2-1.6,0.3-2.6,0.4-3c0-0.1,0.1-0.2,0.1-0.4c0-0.1,0-0.2,0.1-0.3c0-0.1,0-0.1,0-0.1c0,0,0.1,0,0.2,0
		c0.1,0,0.3,0,0.5,0c0.2,0,0.4,0,0.6,0c0.8,0,1.3,0.1,1.3,0.1l0.1,0l-0.3,2.5c-0.2,1.5-0.4,3.7-0.7,6.5c-0.2,2-0.4,3.1-0.4,3.5
		c-0.1,0.3-0.1,0.5-0.2,0.5c-0.3,0-0.9,0-1.9,0l-0.7,0l-0.4-0.9c-0.9-2.2-2-4.7-3.3-7.5l-0.6-1.4l-0.2,1.2c-0.1,0.6-0.2,1.9-0.4,3.7
		c-0.2,1.8-0.3,3-0.3,3.6l-0.1,0.6l-1.2-0.2c-0.8-0.1-1.3-0.2-1.3-0.2c-0.1,0-0.1-0.1-0.1-0.2c0-0.2,0.1-1.1,0.2-2.6
		c0.1-1.5,0.3-3,0.5-4.3c0.5-3.9,0.7-5.8,0.8-5.9C189.1,7.8,189.3,7.8,189.7,7.8"/>
	<path class="st3" d="M213.8,11.8c0.1,0,0.4,0.1,0.9,0.2c0.5,0.1,0.9,0.2,1.2,0.3l0.4,0.1l-0.2,0.8c-0.1,0.4-0.3,1.5-0.8,3.5
		c-0.4,1.8-0.7,3.1-1,3.8c-0.3,0.8-0.5,1.4-0.8,1.9c-0.2,0.4-0.5,0.8-0.9,1.1c-0.3,0.3-0.7,0.5-1.2,0.7c-0.6,0.2-1.1,0.3-1.5,0.3
		c-0.4,0-1.1-0.1-1.9-0.4s-1.5-0.5-2-0.8c-0.2-0.1-0.3-0.2-0.4-0.2s-0.2-0.1-0.4-0.3c-0.5-0.5-0.9-1.1-1.1-1.7
		c-0.2-0.6-0.2-1.4-0.1-2.4c0.1-0.4,0.3-1.8,0.8-4c0.5-2.2,0.9-3.7,1-4.3l0.1-0.5l0.3,0c0.2,0,0.7,0.1,1.4,0.3l1.1,0.3l-0.1,0.7
		c-0.1,0.4-0.3,1.5-0.8,3.3c-0.5,1.8-0.8,3-0.9,3.6c-0.1,0.4-0.2,0.7-0.2,0.9c0,0.1,0,0.3,0,0.6c0,0.5,0.2,0.9,0.3,1.2
		c0.2,0.3,0.4,0.5,0.7,0.7c0.4,0.2,0.8,0.3,1.3,0.4c0.5,0.1,0.8,0.1,1.1,0c0.5-0.2,0.9-0.6,1.2-1.3c0.1-0.2,0.5-1.7,1.2-4.6l1.1-4.3
		L213.8,11.8z"/>
	<path class="st3" d="M223.2,14.2c0.8,0.2,1.5,0.5,1.9,0.7l0.3,0.2l0.2,1c0.1,0.7,0.3,1.9,0.6,3.6c0.4,2.6,0.7,4.3,0.8,4.9l0.1,0.3
		l0.3-1c0.3-0.8,0.7-2,1.2-3.5c0.6-1.5,0.9-2.4,1.1-2.8c0.1-0.1,0.1-0.2,0.2-0.3c0.1-0.1,0.1-0.2,0.1-0.3c0-0.1,0-0.1,0-0.1
		c0,0,0.1,0,0.2,0c0.1,0,0.3,0.1,0.4,0.1c0.2,0.1,0.4,0.1,0.6,0.2c0.8,0.2,1.2,0.4,1.3,0.4l0.1,0l-0.9,2.3c-0.5,1.4-1.3,3.5-2.3,6.1
		c-0.7,1.9-1.1,3-1.2,3.3c-0.1,0.3-0.2,0.5-0.3,0.5c-0.3,0-0.9-0.2-1.8-0.5l-0.7-0.2l-0.1-1c-0.3-2.3-0.8-5-1.4-8.1l-0.3-1.5
		l-0.4,1.1c-0.2,0.6-0.7,1.8-1.3,3.5c-0.6,1.8-1,2.9-1.1,3.4l-0.2,0.6l-1.2-0.5c-0.8-0.3-1.2-0.5-1.3-0.5c-0.1-0.1-0.1-0.1-0.1-0.2
		c0-0.2,0.3-1,0.8-2.5c0.5-1.5,1-2.8,1.5-4c1.4-3.6,2.1-5.5,2.2-5.5C222.6,14,222.8,14.1,223.2,14.2"/>
	<path class="st3" d="M243,22.1c0.2,0.1,0.6,0.2,1,0.4c0.4,0.2,0.7,0.4,0.9,0.6c0.5,0.4,0.8,0.6,0.9,0.8c0.1,0.1,0.3,0.3,0.4,0.5
		c0.4,0.6,0.7,1.3,0.9,2c0.1,0.5,0.2,0.9,0.2,1.3c0,0.3-0.1,0.7-0.2,1.1C247,28.9,247,29,247,29c0,0-0.1,0-0.1,0
		c-0.1,0-0.4-0.2-1-0.4c-0.6-0.2-1-0.4-1.1-0.5c-0.2-0.1-0.3-0.2-0.3-0.2c0-0.1,0-0.2,0.1-0.4c0.1-0.4,0.1-0.8-0.1-1.3
		c-0.1-0.2-0.2-0.4-0.2-0.5c-0.1-0.1-0.2-0.2-0.4-0.4c-0.5-0.4-1-0.7-1.4-0.9c-1-0.4-2-0.4-2.8,0.3c-0.5,0.4-1,0.9-1.5,1.7
		c-0.4,0.7-0.8,1.5-1.1,2.5c-0.1,0.2-0.1,0.4-0.1,0.5c0,0.1,0,0.2,0,0.4c0.1,0.3,0.2,0.6,0.3,0.9c0.1,0.3,0.2,0.5,0.3,0.7
		c0.1,0.2,0.3,0.4,0.5,0.6c0.2,0.2,0.5,0.4,0.9,0.6c0.7,0.3,1.3,0.4,2,0.3c0.4,0,0.7-0.1,1.1-0.3c0.4-0.2,0.6-0.4,0.8-0.6l0.1-0.2
		l-1.4-0.7l-1.4-0.7l0.2-0.4c0.1-0.3,0.4-0.6,0.6-1l0.4-0.6l0.4,0.2c0.4,0.1,1.2,0.6,2.5,1.2c1.3,0.7,1.9,1,2,1.1
		c0,0.1-0.3,0.7-0.9,1.8c-0.9,1.7-1.7,3.1-2.2,4.2l-0.1,0.2l-0.7-0.4c-0.5-0.3-0.8-0.4-0.9-0.5c-0.1-0.1-0.1-0.1-0.1-0.2
		c0-0.1,0.1-0.3,0.3-0.8l0.2-0.5l-0.5,0.1c-0.4,0.1-0.9,0.2-1.3,0.2c-0.5,0-0.9,0-1.3-0.1c-0.9-0.2-1.7-0.7-2.4-1.3
		c-0.7-0.6-1.2-1.4-1.6-2.2c-0.5-1.1-0.6-2.3-0.3-3.5c0-0.2,0.1-0.5,0.2-0.6c0.1-0.2,0.3-0.6,0.6-1.3c0.4-0.8,0.7-1.4,1-1.7
		c0.2-0.3,0.5-0.6,0.9-0.9c0.7-0.6,1.5-1,2.5-1.3c1-0.3,1.8-0.3,2.6-0.1c0.2,0.1,0.4,0.1,0.5,0.1C242.5,22,242.7,22,243,22.1
		 M242.9,33.9c0.1-0.1,0.1-0.2,0.2-0.3l0,0l-0.1,0.1L242.9,33.9z"/>
	<path class="st3" d="M76.8,232c0.1,0,0.2,0.1,0.3,0.2c0.2,0.2,0.2,0.4,0.1,0.5c-0.1,0.1-0.5,0.2-1.4,0.5c-1.3,0.5-2.2,0.8-2.8,1.1
		c-0.6,0.3-1.1,0.6-1.5,0.9c-0.4,0.3-0.6,0.6-0.7,0.8c-0.1,0.3,0,0.5,0.2,0.8c0.1,0.1,0.2,0.2,0.2,0.3c0,0.1,0,0.1-0.1,0.2
		c-0.1,0.1-0.2,0.1-0.3,0.1s-0.1,0-0.1-0.1c0,0-0.3-0.3-0.7-0.9c-0.4-0.4-0.9-1-1.5-1.9c-0.6-0.8-0.9-1.2-0.9-1.3
		c0,0,0.1-0.1,0.3-0.1c0.1-0.1,0.2-0.1,0.3,0c0.1,0,0.2,0.2,0.4,0.4c0.3,0.3,0.7,0.5,1.1,0.6c0.3,0,0.7-0.1,1.3-0.3
		c0.6-0.3,1.6-0.7,2.8-1.4c0.6-0.3,0.9-0.5,0.9-0.5c0,0,0-0.1,0-0.2c0-0.1-0.2-0.3-0.4-0.6l-0.5-0.7l0.2-0.1
		c0.2-0.1,0.3-0.2,0.3-0.2c0.1,0,0.2,0.1,0.4,0.3c0.3,0.3,0.6,0.6,1,0.9c0.4,0.2,0.7,0.4,1,0.5C76.5,231.9,76.6,231.9,76.8,232"/>
	<path class="st3" d="M81.4,238.1c0.3,0,0.5,0.1,0.5,0.1c0,0.1,0.1,0.2,0.3,0.4c0.1,0.2,0.2,0.3,0.2,0.3c0,0,0,0.1,0,0.1
		c-0.1,0.1-0.3,0.2-0.8,0.5c-0.3,0.1-0.9,0.5-1.8,1c-1.3,0.7-2.2,1.2-2.8,1.5l-0.3,0.1l0.1,0.1c0.1,0.1,0.2,0.2,0.5,0.5
		c0.2,0.2,0.4,0.4,0.4,0.4c0,0.1-0.1,0.2-0.2,0.3c-0.2,0.1-0.3,0.2-0.4,0.3l-0.2,0.1l-0.5-0.6l-0.5-0.6l-0.8,0.4
		c-0.7,0.3-1.4,0.7-2,1c-0.2,0.1-0.3,0.1-0.3,0.1c-0.1,0-0.2-0.2-0.4-0.4c-0.2-0.2-0.3-0.4-0.4-0.5c-0.1-0.1-0.2-0.2-0.1-0.2
		c0-0.1,0.2-0.2,0.5-0.4c0.3-0.2,0.8-0.4,1.4-0.7c0.6-0.3,0.9-0.4,0.9-0.5c0,0-0.5-0.6-1.5-1.8c-1-1.2-1.5-1.8-1.4-1.8
		c0-0.1,0.2-0.2,0.6-0.3l0.5-0.3l0.7,0.1c0.5,0.1,1.7,0.2,3.4,0.3C79.2,237.8,80.7,238,81.4,238.1 M79.2,239
		c0.2-0.1,0.3-0.1,0.3-0.1c0,0-0.5,0-1.4-0.1c-0.9-0.1-1.9-0.2-3-0.3c-0.5-0.1-0.9-0.1-1.2-0.1c-0.3,0-0.5,0-0.5,0
		c0,0,0.4,0.5,1.2,1.3l1.2,1.3l0.3-0.2c0.4-0.3,1-0.6,1.6-0.9C78.3,239.4,78.8,239.1,79.2,239"/>
	<path class="st3" d="M77.8,246.1c0,0,0-0.1,0-0.1c-0.1-0.2-0.1-0.4,0-0.6c0.1-0.4,0.2-0.6,0.5-0.8c0.3-0.2,0.7-0.2,1.2,0
		c0.3,0.1,0.4,0.4,0.5,0.7c0,0.3,0,0.6-0.2,0.8c-0.1,0.2-0.3,0.3-0.6,0.4c-0.3,0.1-0.5,0-0.7-0.1c-0.2,0-0.4,0-0.5-0.2
		C77.9,246.2,77.8,246.2,77.8,246.1C77.8,246.1,77.8,246.1,77.8,246.1 M78,246C78,246,78,246,78,246C78,246.1,78,246.1,78,246
		c0,0.1,0.1,0.2,0.1,0.2c0,0,0,0,0-0.1C78.1,246.2,78.1,246.1,78,246C78,246.1,78,246.1,78,246 M78.1,245.1
		C78.1,245.1,78.1,245.1,78.1,245.1C78.1,245.1,78.1,245.1,78.1,245.1L78.1,245.1z M78.7,246.1C78.7,246.2,78.7,246.2,78.7,246.1
		L78.7,246.1C78.7,246.2,78.7,246.2,78.7,246.1 M79.3,245.8c0.2-0.1,0.3-0.2,0.4-0.3l0,0c0,0,0,0,0.1,0c0,0,0-0.1,0-0.1
		c0,0-0.1,0.1-0.2,0.2c0,0-0.1,0.1-0.1,0.1L79.3,245.8C79.3,245.8,79.3,245.8,79.3,245.8 M79.5,245C79.5,245,79.5,245.1,79.5,245
		C79.5,245.1,79.5,245.1,79.5,245L79.5,245c0,0.1,0,0.1,0,0.1l0,0l0,0C79.6,245.1,79.6,245.1,79.5,245c0.1,0.1,0.1,0.1,0.1,0.1
		c0-0.1-0.1-0.1-0.1-0.2C79.5,245,79.5,245,79.5,245 M79.6,245.9C79.6,245.8,79.6,245.8,79.6,245.9
		C79.6,245.8,79.7,245.8,79.6,245.9L79.6,245.9z"/>
	<path class="st3" d="M88.8,251.7l-1.7-1.5l-1.4-1.3c-0.1,0-0.1-0.1,0-0.1l0,0c0,0,0-0.1,0-0.1c0.1-0.1,0.3-0.2,0.6-0.4
		c0,0,0,0,0.1,0c0.1,0,0.1-0.1,0.1-0.1c0,0,0.1,0,0.1,0c0-0.1,0.1-0.1,0.1,0c0.5,0.3,1,0.8,1.6,1.5c0.1,0.1,0.2,0.2,0.4,0.4
		c0.5,0.5,0.8,0.8,1,1c0.1,0,0.1,0.1,0,0.1c0,0,0,0,0,0c0,0,0,0,0,0c-0.2,0.2-0.4,0.4-0.8,0.6c0,0,0,0-0.1,0
		C88.9,251.7,88.9,251.7,88.8,251.7 M86,248.7L86,248.7C86,248.7,85.9,248.7,86,248.7L86,248.7L86,248.7C86,248.7,86,248.7,86,248.7
		 M86.1,248.6C86.1,248.6,86.1,248.6,86.1,248.6C86.1,248.6,86.1,248.6,86.1,248.6C86.1,248.6,86.1,248.6,86.1,248.6L86.1,248.6z
		 M86.3,248.5C86.3,248.5,86.3,248.5,86.3,248.5L86.3,248.5C86.3,248.5,86.3,248.5,86.3,248.5 M86.6,248.3c0,0-0.1,0-0.1,0.1
		c0,0,0,0-0.1,0l0,0c0,0,0.1,0,0.1,0c0,0,0.1,0,0.1,0c0,0,0,0,0.1,0c0,0,0-0.1,0-0.1C86.7,248.3,86.7,248.3,86.6,248.3
		C86.7,248.2,86.6,248.3,86.6,248.3 M87.2,248.8C87.3,248.8,87.3,248.8,87.2,248.8c0.1,0,0.1,0,0.1,0c0,0-0.1-0.1-0.1-0.1
		C87.3,248.7,87.2,248.7,87.2,248.8C87.2,248.7,87.2,248.8,87.2,248.8 M88.1,250.1c0,0-0.1,0-0.1,0c0,0,0,0-0.1,0c0,0-0.1,0-0.1,0
		C87.9,250.1,88,250.1,88.1,250.1 M88,250.3C88,250.3,88,250.3,88,250.3L88,250.3C88,250.3,88,250.3,88,250.3 M88.2,250.5
		L88.2,250.5L88.2,250.5L88.2,250.5z M88.5,250.9C88.5,251,88.4,251,88.5,250.9L88.5,250.9L88.5,250.9C88.4,251,88.5,251,88.5,250.9
		C88.5,251,88.5,251,88.5,250.9L88.5,250.9z M88.6,251.2C88.6,251.2,88.6,251.2,88.6,251.2L88.6,251.2L88.6,251.2L88.6,251.2z
		 M88.9,250.4L88.9,250.4C88.9,250.4,88.9,250.4,88.9,250.4C88.9,250.4,88.9,250.4,88.9,250.4 M89.1,251.4L89.1,251.4
		C89.1,251.4,89.1,251.4,89.1,251.4L89.1,251.4L89.1,251.4z M89.4,251.1C89.4,251.1,89.4,251.1,89.4,251.1
		C89.4,251.1,89.4,251.1,89.4,251.1C89.5,251.1,89.5,251.1,89.4,251.1C89.4,251.1,89.4,251.1,89.4,251.1"/>
	<path class="st3" d="M99.8,254.6c0.1,0,0.2,0.1,0.3,0.1c0.2,0.2,0.3,0.3,0.2,0.4c0,0.1-0.4,0.4-1.2,0.9c-1.1,0.7-1.9,1.3-2.5,1.8
		c-0.5,0.4-1,0.8-1.3,1.2c-0.3,0.4-0.5,0.7-0.5,1c0,0.3,0.1,0.5,0.4,0.7c0.1,0.1,0.2,0.2,0.2,0.3c0,0.1,0,0.1-0.1,0.2
		c-0.1,0.1-0.2,0.2-0.2,0.2c-0.1,0-0.1,0-0.1,0c0,0-0.3-0.2-0.9-0.7c-0.5-0.3-1.1-0.8-1.9-1.5c-0.8-0.6-1.2-1-1.2-1
		c0,0,0.1-0.1,0.2-0.2c0.1-0.1,0.2-0.1,0.3-0.1c0.1,0,0.2,0.1,0.5,0.3c0.4,0.3,0.8,0.4,1.2,0.3c0.3,0,0.7-0.2,1.2-0.7
		c0.6-0.4,1.4-1.1,2.4-2c0.5-0.4,0.7-0.7,0.8-0.7c0,0,0-0.1-0.1-0.1c-0.1-0.1-0.3-0.2-0.6-0.5l-0.7-0.6l0.2-0.2
		c0.1-0.2,0.2-0.2,0.3-0.2c0.1,0,0.2,0.1,0.4,0.2c0.4,0.3,0.7,0.5,1.1,0.6c0.4,0.1,0.7,0.2,1,0.2C99.5,254.6,99.6,254.6,99.8,254.6"
		/>
	<path class="st3" d="M107.7,257.3c0.1,0,0.2,0.1,0.3,0.2c0.1,0.1,0.2,0.2,0.3,0.2c0.1,0.1,0.1,0.1,0.1,0.1l-0.2,0.3
		c-0.1,0.2-0.2,0.3-0.3,0.3c0,0-0.1-0.1-0.3-0.2c-0.6-0.4-1.4-0.5-2.3-0.5c-0.9,0-1.9,0.2-2.8,0.6c-0.2,0.1-0.3,0.1-0.5,0.2
		c-0.2,0.1-0.3,0.2-0.3,0.2c0,0,0,0,0.1,0c0.3,0,0.6,0.1,1,0.2c0.4,0.1,0.7,0.2,0.9,0.4c0.3,0.2,0.6,0.5,0.9,0.8
		c0.3,0.4,0.5,0.7,0.6,1c0.2,0.6,0.1,1.3-0.3,1.9c-0.4,0.6-1,1.1-1.8,1.5c-1.3,0.6-2.6,0.7-3.9,0.3c-0.2-0.1-0.5-0.2-0.7-0.4
		c-0.4-0.4-0.8-0.8-1-1.3c-0.4-0.8-0.4-1.6-0.1-2.4c0.3-0.8,0.9-1.5,1.8-2.2c1.2-0.9,2.7-1.5,4.3-1.7
		C105.2,256.6,106.6,256.7,107.7,257.3 M103.5,260.6c-0.3-0.5-0.8-0.9-1.5-1c-0.3-0.1-0.6-0.1-0.8-0.1l-0.4,0l-0.4,0.4
		c-0.8,0.7-1.3,1.4-1.5,2c-0.2,0.4-0.2,0.8-0.2,1.1c0,0.2,0.1,0.4,0.3,0.6c0.2,0.2,0.4,0.3,0.6,0.4c0.6,0.2,1.2,0.2,1.8-0.1
		c0.6-0.2,1.2-0.6,1.7-1.2C103.7,262,103.8,261.3,103.5,260.6"/>
	<path class="st3" d="M104.1,268C104.1,268,104.1,268,104.1,268c-0.2-0.3-0.2-0.5-0.2-0.7c0-0.4,0.1-0.7,0.3-0.9
		c0.3-0.3,0.7-0.4,1.1-0.2c0.3,0.1,0.5,0.3,0.6,0.6c0.1,0.3,0.1,0.6,0,0.8c-0.1,0.2-0.3,0.4-0.5,0.5c-0.2,0.1-0.5,0.2-0.7,0.1
		c-0.2,0.1-0.4,0.1-0.6-0.1C104.2,268.1,104.2,268.1,104.1,268C104.1,268,104.1,268,104.1,268 M104.2,267
		C104.1,267,104.1,267,104.2,267C104.1,267,104.1,267,104.2,267C104.1,267,104.1,267,104.2,267 M104.3,267.9
		C104.3,267.9,104.3,267.9,104.3,267.9C104.3,267.9,104.3,267.9,104.3,267.9c0.1,0.1,0.1,0.1,0.2,0.2c0,0,0,0,0-0.1
		C104.4,268,104.4,268,104.3,267.9C104.3,267.9,104.3,267.9,104.3,267.9 M105,267.8C105,267.8,105,267.9,105,267.8L105,267.8
		C105,267.9,105,267.8,105,267.8 M105.5,267.4c0.1-0.2,0.2-0.3,0.3-0.4l0,0c0,0,0,0,0,0c0,0,0-0.1-0.1-0.1c0,0.1-0.1,0.1-0.1,0.2
		c0,0,0,0.1-0.1,0.1L105.5,267.4C105.5,267.3,105.5,267.4,105.5,267.4 M105.5,266.6C105.5,266.6,105.5,266.6,105.5,266.6
		C105.5,266.6,105.5,266.6,105.5,266.6L105.5,266.6c0.1,0.1,0.1,0.1,0.1,0.1l0,0l0,0C105.6,266.7,105.6,266.7,105.5,266.6
		c0.1,0.1,0.1,0,0.2,0c-0.1-0.1-0.1-0.1-0.2-0.2C105.5,266.5,105.5,266.5,105.5,266.6 M105.8,267.3
		C105.8,267.3,105.8,267.3,105.8,267.3C105.8,267.3,105.8,267.3,105.8,267.3C105.8,267.3,105.8,267.3,105.8,267.3"/>
	<path class="st3" d="M119.5,264.4c0.2,0.1,0.7,0.3,1.5,0.8c0.8,0.4,1.4,0.7,1.7,1c0.2,0.1,0.3,0.2,0.4,0.3c0,0.1,0,0.2-0.1,0.3
		c-0.1,0.1-0.1,0.2-0.2,0.2s-0.2,0-0.4-0.1c-0.5-0.3-0.9-0.3-1.3,0c-0.1,0.1-0.2,0.2-0.4,0.5c-0.3,0.4-0.8,1-1.5,1.9
		c-0.7,0.9-1.2,1.5-1.4,1.7c-1.1,1.2-2.1,2-3,2.2c-0.4,0.1-0.9,0.1-1.5,0.1c-0.6-0.1-1-0.2-1.4-0.3c-0.1-0.1-0.3-0.2-0.5-0.4
		c-0.2-0.2-0.4-0.4-0.5-0.5c-0.3-0.4-0.4-0.8-0.4-1.2c0-0.1,0-0.3,0.1-0.3c0-0.1,0.1-0.2,0.2-0.5c0.2-0.3,0.3-0.6,0.5-0.7
		c0.2-0.1,0.4-0.2,0.6-0.3c0.2-0.1,0.4-0.1,0.6-0.1c0.4,0.1,0.7,0.2,0.8,0.5c0.2,0.3,0.1,0.6-0.1,0.9c-0.3,0.3-0.7,0.6-1.3,0.8
		l-0.4,0.1l0.1,0.3c0.2,0.4,0.4,0.7,0.7,0.8c0.5,0.2,1.1,0,1.8-0.4c0.7-0.5,1.6-1.2,2.5-2.3c0.6-0.7,1.2-1.4,1.9-2.3
		c0.6-0.9,1-1.4,1-1.5c0-0.2-0.2-0.4-0.6-0.6c-0.3-0.1-0.4-0.2-0.4-0.2c0,0,0.1-0.1,0.2-0.2c0.1-0.1,0.2-0.2,0.3-0.2
		C119.1,264.3,119.3,264.3,119.5,264.4 M111.9,272.2c0,0,0-0.1-0.1-0.1l-0.1-0.1c0,0.1,0.1,0.1,0.1,0.2L111.9,272.2z"/>
	<path class="st3" d="M123.6,270.1c0.3,0.1,0.6,0.2,0.8,0.4c0.2,0.2,0.3,0.3,0.4,0.5c0,0.2,0,0.4-0.2,0.8c-0.1,0.3-0.2,0.5-0.4,0.7
		c-0.1,0.2-0.4,0.6-0.8,1.2c-0.8,1-1.3,1.7-1.4,2.1c-0.1,0.4-0.2,0.6,0,0.7c0,0,0.1,0.1,0.1,0.1c0.1,0.1,0.4,0.2,0.8,0.3
		c0.4,0,0.8,0,1.1-0.1c0.2-0.1,0.3-0.1,0.4-0.1c0,0,0.1-0.1,0.2-0.3c0.3-0.5,0.9-1.2,1.7-2.2c0.5-0.7,0.9-1.2,1.2-1.5
		c0.2-0.3,0.4-0.5,0.4-0.5c0,0,0.3,0.1,0.7,0.2c0.3,0.1,0.5,0.2,0.5,0.2c0.1,0,0.1,0.1,0.1,0.1l0.1,0.2l-0.7,0.8
		c-1.4,1.7-2.3,2.9-2.7,3.7c-0.2,0.5-0.3,0.8-0.1,0.9c0.1,0.1,0.4,0.2,0.9,0.1c0.3-0.1,0.4,0,0.4,0.1c0,0.1-0.1,0.2-0.3,0.5
		l-0.2,0.4l-0.1,0c-0.1,0-0.2-0.1-0.4-0.1c-0.5,0-1-0.1-1.5-0.3c-0.2-0.1-0.3-0.1-0.4-0.2c-0.1,0-0.1-0.1-0.2-0.2
		c-0.2-0.2-0.3-0.5-0.2-0.8l0-0.2l-0.3,0.1c-0.7,0.2-1.4,0.3-2,0.1c-0.6-0.1-1-0.4-1.2-0.9c-0.1-0.2-0.1-0.3-0.1-0.4
		c0-0.2,0-0.5,0.2-0.8c0.1-0.4,0.3-0.7,0.5-1c0.2-0.2,0.3-0.5,0.4-0.7c0.1-0.2,0.2-0.4,0.3-0.4c0.1-0.1,0.4-0.4,0.7-0.8
		c0.3-0.4,0.5-0.7,0.6-1c0.1-0.2,0.2-0.4,0.2-0.5c0-0.1,0-0.2-0.1-0.3c-0.1-0.1-0.2-0.1-0.5-0.2c-0.2-0.1-0.4-0.1-0.4-0.1
		c0,0-0.1,0-0.2,0c0,0-0.1,0,0-0.1c0,0,0-0.1,0.1-0.3c0.1-0.2,0.2-0.3,0.2-0.4c0,0,0.3,0,0.6,0C123.2,270,123.4,270,123.6,270.1
		 M124.2,270.6c0,0,0-0.1-0.1-0.1c0,0-0.1,0-0.1,0c0,0,0,0,0,0c0,0,0,0.1,0,0.1C124,270.6,124,270.6,124.2,270.6
		C124.1,270.6,124.1,270.6,124.2,270.6"/>
	<path class="st3" d="M135.6,274.7c0.2,0.1,0.4,0.1,0.6,0.3c0.2,0.1,0.3,0.3,0.4,0.4c0.1,0.2,0.2,0.5,0.2,0.7c0,0.3-0.1,0.6-0.2,1
		c-0.1,0.3-0.2,0.6-0.4,0.9c-0.2,0.3-0.4,0.7-0.9,1.4c-0.7,1-0.9,1.6-0.9,1.8c0,0.1,0.1,0.1,0.3,0.1c0.2,0,0.4,0,0.6,0
		c0.2,0,0.4,0,0.4,0c0.1,0.1,0.1,0.3-0.1,0.5c-0.1,0.1-0.1,0.2-0.2,0.2s-0.1,0.1-0.3,0.1c-0.4,0.2-0.8,0.2-1.3,0.2
		c-0.4,0-0.8-0.1-1-0.4c-0.2-0.2-0.3-0.5-0.3-0.8c0-0.3,0.2-0.6,0.4-1c0.2-0.4,0.7-1.1,1.3-2c0.6-0.8,0.9-1.4,1-1.7
		c0.1-0.3,0-0.6-0.2-0.8c-0.1-0.1-0.4-0.1-0.7-0.1c-0.3,0-0.6,0-0.9,0.1c-0.5,0.1-0.9,0.3-1,0.5c-0.4,0.4-0.7,0.9-1.1,1.6
		c-1.1,1.8-1.8,2.8-2,2.8c-0.1,0-0.2,0-0.5-0.2c-0.2-0.1-0.4-0.2-0.6-0.3c-0.1-0.1-0.1-0.1-0.1-0.1c0,0,0-0.1,0-0.1
		c0-0.1,0.2-0.3,0.5-0.7c0.6-0.9,1.2-1.8,1.8-2.9c0.6-1,0.9-1.7,0.9-1.9c0-0.1-0.1-0.1-0.2-0.2c-0.1,0-0.3-0.1-0.5,0
		c-0.2,0-0.4,0-0.4,0c-0.1,0-0.1,0-0.1-0.1c0-0.1,0-0.2,0.1-0.3c0.1-0.2,0.2-0.2,0.2-0.3c0.1,0,0.6,0,1.3,0.1c0.2,0,0.4,0.1,0.7,0.2
		c0.3,0.1,0.4,0.2,0.5,0.3c0.2,0.2,0.3,0.5,0.2,0.8l0,0.2l0.2-0.1C134.2,274.7,135,274.6,135.6,274.7 M128.8,280.1
		c0-0.1,0-0.1-0.1-0.1c-0.1,0-0.1,0,0,0.1C128.6,280.1,128.6,280.2,128.8,280.1C128.7,280.2,128.7,280.2,128.8,280.1 M132.7,274.4
		C132.7,274.4,132.7,274.4,132.7,274.4c-0.1-0.1-0.1-0.1-0.1,0C132.6,274.5,132.6,274.5,132.7,274.4
		C132.7,274.5,132.7,274.5,132.7,274.4"/>
	<path class="st3" d="M139.4,276.4c0.3,0,0.6,0.1,0.9,0.2c0.3,0.1,0.5,0.2,0.6,0.3c0.3,0.2,0.3,0.6,0.2,1c-0.1,0.3-0.2,0.6-0.4,0.8
		c-0.2,0.3-0.5,0.7-0.9,1.3c-0.7,1-1.2,1.8-1.4,2.3c-0.1,0.2-0.1,0.3-0.1,0.3c0,0,0,0.1,0.1,0.2c0.1,0.2,0.3,0.3,0.5,0.3
		c0.2,0,0.4,0,0.5-0.1c0,0,0.1,0,0.1,0c0,0,0.1,0,0.1,0c0,0,0.1,0,0,0.1c0,0.1-0.1,0.2-0.1,0.4c-0.1,0.1-0.1,0.2-0.1,0.2
		c0,0-0.1,0-0.3,0.1c-0.4,0.1-0.7,0.2-1.1,0.2c-0.2,0-0.5,0-0.8-0.1c-0.3-0.1-0.4-0.2-0.5-0.3c-0.2-0.2-0.2-0.6,0-1.1
		c0.1-0.5,0.5-1.2,1.1-2.2c0.7-1.1,1.1-1.8,1.2-2.2c0.2-0.6,0-0.9-0.6-0.9c-0.3,0-0.5-0.1-0.5-0.2c0-0.1,0-0.2,0.2-0.3
		c0.1-0.2,0.2-0.3,0.3-0.3C138.6,276.3,138.9,276.3,139.4,276.4 M142.4,273.3c0.1,0,0.3,0,0.4,0.1c0.1,0.1,0.2,0.1,0.3,0.2
		c0.2,0.2,0.2,0.5,0.1,1c-0.1,0.4-0.3,0.7-0.7,0.8c-0.1,0-0.2,0.1-0.2,0c-0.1,0-0.2,0-0.3-0.1c-0.2-0.1-0.3-0.1-0.4-0.2
		c-0.1-0.1-0.1-0.2-0.2-0.3c0-0.1,0-0.3,0-0.6c0.1-0.2,0.2-0.4,0.3-0.6c0.1-0.1,0.2-0.2,0.3-0.2
		C142.1,273.3,142.2,273.3,142.4,273.3 M141.8,274.8c0,0,0-0.1,0-0.1c0-0.1-0.1-0.1-0.1-0.1c0,0,0,0,0,0.1
		C141.7,274.8,141.8,274.8,141.8,274.8C141.8,274.8,141.8,274.9,141.8,274.8 M142.2,273.7c0-0.1,0-0.1,0-0.1c-0.1,0-0.2,0-0.2,0.2
		c0,0.1,0,0.1,0,0.1c0,0,0,0,0.1-0.1C142.1,273.8,142.2,273.8,142.2,273.7"/>
	<path class="st3" d="M159.4,277.9c0,0,1.4,0.2,4,0.5c2.6,0.4,4,0.6,4,0.6c0,0,0,0.1,0,0.2c0,0.1-0.1,0.5-0.4,1.1
		c-0.2,0.7-0.4,1.1-0.4,1.1c0,0-0.1,0-0.4,0c-0.2,0-0.3-0.1-0.3-0.1c0,0-0.1,0-0.1-0.1c0-0.3,0-0.6-0.2-0.8c-0.2-0.6-0.8-1-1.7-1.2
		c-0.2-0.1-0.6-0.1-1-0.2c-0.4-0.1-0.7-0.1-0.7,0c0,0-0.2,0.5-0.5,1.4c-0.4,1-0.6,1.6-0.7,1.9l-0.2,0.5l0.4,0.1
		c0.4,0.1,0.8,0.1,1.1,0.1c0.4,0,0.7-0.2,0.9-0.3c0.2-0.2,0.4-0.4,0.6-0.7c0.1-0.1,0.1-0.2,0.2-0.3c0.1,0,0.2,0,0.4,0
		c0.2,0,0.3,0.1,0.3,0.1c0,0,0,0.2-0.2,0.5c-0.1,0.3-0.3,0.9-0.6,1.8c-0.3,0.9-0.5,1.4-0.6,1.5l-0.1,0.2l-0.3,0l-0.3,0l0-0.2
		c0-0.4,0-0.8-0.1-1c-0.2-0.4-0.7-0.6-1.5-0.8l-0.5-0.1l-0.2,0.5c-0.1,0.2-0.2,0.5-0.4,1c-0.3,0.7-0.5,1.3-0.6,1.7
		c0,0.3,0,0.6,0.1,0.8c0,0.1,0.1,0.2,0.3,0.3c0.2,0.1,0.3,0.2,0.3,0.2c0.1,0,0.1,0.1,0.2,0.3c0,0.2,0,0.3-0.1,0.3
		c-0.1,0-0.8,0-2.3-0.2c-0.1,0-0.4,0-0.6-0.1c-0.9-0.1-1.4-0.2-1.5-0.2c-0.1,0-0.2-0.1-0.1-0.3c0,0,0-0.1,0-0.1l0.1-0.3l0.2,0
		c0.4,0,0.7,0,0.9-0.1c0.3-0.1,0.5-0.3,0.7-0.7c0.4-0.8,1-2.1,1.6-3.8c0.6-1.7,1-2.8,1.1-3.4c0-0.2,0-0.3-0.1-0.4
		c-0.1-0.1-0.2-0.2-0.4-0.3c-0.2-0.1-0.3-0.2-0.4-0.2c0-0.1-0.1-0.1,0-0.2c0-0.1,0.1-0.2,0.1-0.3
		C159.3,277.9,159.3,277.9,159.4,277.9 M166.2,279.9C166.2,279.8,166.2,279.8,166.2,279.9C166.2,279.8,166.1,279.8,166.2,279.9
		c-0.1-0.1-0.2-0.1-0.2,0s0,0,0.1,0.1C166.1,279.9,166.2,279.9,166.2,279.9"/>
	<path class="st3" d="M172.1,282.2c0.2,0,0.4,0,0.5,0.1c0.2,0.1,0.3,0.2,0.4,0.3c0.2,0.3,0.2,0.7,0,1.1c-0.1,0.5-0.4,0.8-0.7,1.1
		c-0.2,0.1-0.4,0.2-0.6,0.2c-0.3,0-0.5-0.2-0.7-0.5c-0.1-0.2-0.1-0.5,0-0.9c0.1-0.2,0.1-0.3,0.1-0.3c0,0-0.2,0-0.4,0.2
		s-0.5,0.2-0.7,0.4c-0.4,0.2-0.6,0.4-0.7,0.5c-0.1,0.1-0.1,0.3-0.2,0.6c-0.2,0.7-0.3,1.1-0.4,1.3c0,0.1,0,0.1,0,0.2
		c0,0.1-0.1,0.3-0.2,0.6c-0.1,0.3-0.1,0.5-0.1,0.6c0,0.1,0,0.2-0.1,0.2c0,0-0.1,0.2-0.2,0.4c-0.2,0.8-0.4,1.2-0.5,1.3
		c-0.1,0-0.3,0-0.7,0c-0.4-0.1-0.7-0.1-0.7-0.1c-0.1-0.1-0.1-0.3,0-0.6c0.2-0.5,0.5-1.3,0.8-2.5c0.3-1.2,0.5-2.1,0.7-2.8
		c0-0.2,0-0.3,0-0.3c0,0,0-0.1-0.1-0.1c-0.1,0-0.2,0-0.5,0c-0.3,0.1-0.5,0.1-0.6,0.1c-0.1,0-0.1,0-0.2-0.1c0-0.1,0-0.1,0.1-0.3
		c0-0.1,0.1-0.2,0.1-0.3c0,0,0.1,0,0.2,0c0.1,0,0.2,0,0.5-0.1c0.9-0.4,1.5-0.3,1.9,0c0.1,0.1,0.2,0.2,0.2,0.4
		c0.1,0.2,0.1,0.4,0.1,0.5l0,0.2l0.4-0.3c0.4-0.3,0.8-0.5,1.1-0.7C171.4,282.3,171.7,282.2,172.1,282.2 M167.1,289.1
		c0-0.1-0.1-0.1-0.2,0c0,0,0,0,0,0l0.1,0C167.1,289.1,167.1,289.1,167.1,289.1"/>
	<path class="st3" d="M177.1,282.2c0.4,0,0.6,0,0.8,0c0.4,0.1,0.8,0.3,1,0.6c0.2,0.3,0.4,0.6,0.3,1.1c0,0.2,0,0.4-0.1,0.6
		c-0.1,0.3-0.1,0.4-0.2,0.5c-0.3,0.4-0.6,0.7-0.8,0.9c-0.2,0.2-0.5,0.4-0.9,0.6c-0.2,0.1-0.5,0.2-0.8,0.3c-0.3,0.1-0.5,0.1-0.5,0.1
		c0,0-0.1,0-0.3,0c-0.2,0-0.4,0-0.7,0.1c-0.2,0-0.3,0-0.4,0c-0.1,0-0.1,0-0.1,0.1c0,0.1,0,0.1-0.1,0.2c0,0.1,0,0.1,0,0.1
		c0,0,0.1,0,0.1,0.1s0,0.1-0.1,0.1c-0.1,0-0.1,0.1-0.1,0.2c0,0,0,0.1,0,0.1c0,0.1,0,0.1,0,0.1c0,0.1,0,0.2,0,0.2
		c0,0.1,0.1,0.1,0.1,0.1c0.1,0,0.2,0.1,0.1,0.2c0,0.1,0,0.2,0,0.3c0.2,0.4,0.7,0.5,1.3,0.3c0.6-0.2,1.2-0.5,1.9-1.1l0.4-0.3l0.2,0.2
		c0.2,0.2,0.3,0.2,0.3,0.2c0.1,0,0.1,0.1-0.1,0.2c0,0,0,0.1-0.1,0.1c-0.1,0.1-0.2,0.2-0.5,0.5c-0.2,0.2-0.5,0.4-0.7,0.6
		c-0.8,0.5-1.5,0.7-2.2,0.7c-0.7,0-1.3-0.3-1.8-0.8c-0.2-0.2-0.3-0.4-0.4-0.6c-0.1-0.2-0.1-0.4-0.2-0.8c-0.1-0.6,0-1.3,0.1-2
		c0.2-0.7,0.4-1.3,0.8-1.8c0.1-0.2,0.3-0.4,0.5-0.6c0.2-0.2,0.4-0.4,0.6-0.5C175.6,282.6,176.3,282.3,177.1,282.2 M177.5,283.3
		c-0.3-0.2-0.6-0.1-1,0.2c-0.4,0.3-0.8,0.8-1.2,1.5c-0.1,0.2-0.2,0.3-0.3,0.5c-0.1,0.2-0.1,0.3-0.2,0.4c0,0.1,0,0.2,0,0.2
		c0,0,0.2,0,0.5-0.1c0.3-0.1,0.5-0.1,0.8-0.2c0.6-0.2,1.1-0.5,1.5-0.8c0.4-0.3,0.6-0.6,0.6-0.9c0-0.1,0-0.3-0.2-0.5
		C177.7,283.5,177.6,283.4,177.5,283.3"/>
	<path class="st3" d="M181.1,282.7c0.3-0.1,0.6-0.1,0.9-0.1c0.3,0,0.5,0,0.7,0.1c0.3,0.2,0.5,0.4,0.5,0.8c0,0.3,0,0.6-0.1,0.9
		c-0.1,0.3-0.2,0.8-0.4,1.5c-0.4,1.2-0.6,2.1-0.6,2.6c0,0.2,0,0.3,0,0.3c0,0,0.1,0.1,0.2,0.1c0.2,0.1,0.4,0.2,0.6,0.1
		c0.2,0,0.4-0.1,0.5-0.2c0,0,0.1-0.1,0.1-0.1c0,0,0.1,0,0.1,0c0,0,0.1,0,0.1,0.1c0,0.1,0,0.2,0,0.4c0,0.2,0,0.2-0.1,0.2
		c0,0-0.1,0.1-0.3,0.2c-0.3,0.2-0.6,0.4-1,0.6c-0.2,0.1-0.5,0.2-0.7,0.2c-0.3,0-0.5,0-0.6-0.1c-0.3-0.2-0.4-0.5-0.4-1.1
		c0-0.5,0.1-1.3,0.4-2.5c0.3-1.3,0.4-2.1,0.4-2.5c0-0.6-0.3-0.9-0.8-0.7c-0.3,0.1-0.5,0.1-0.5,0c0,0,0-0.2,0-0.4
		c0.1-0.2,0.1-0.3,0.2-0.4C180.4,282.9,180.6,282.8,181.1,282.7 M183,278.8c0.1,0,0.3-0.1,0.4-0.1c0.1,0,0.3,0,0.4,0.1
		c0.2,0.2,0.4,0.4,0.4,0.9c0,0.4-0.1,0.7-0.4,0.9c-0.1,0.1-0.2,0.1-0.2,0.1c0,0-0.2,0-0.3,0c-0.2,0-0.4,0-0.4-0.1
		c-0.1,0-0.2-0.1-0.3-0.2c-0.1-0.1-0.1-0.3-0.2-0.5c0-0.3,0-0.5,0.1-0.6c0.1-0.1,0.1-0.2,0.2-0.3C182.7,278.9,182.8,278.9,183,278.8
		 M182.9,280.5c0,0,0-0.1-0.1-0.1c-0.1-0.1-0.1-0.1-0.1,0c0,0,0,0,0,0.1C182.8,280.4,182.8,280.5,182.9,280.5
		C182.9,280.5,182.9,280.5,182.9,280.5 M182.9,279.3c0-0.1,0-0.1,0-0.1c-0.1,0-0.1,0.1-0.1,0.3c0,0.1,0,0.1,0,0.1c0,0,0,0,0-0.1
		C182.9,279.4,182.9,279.3,182.9,279.3"/>
	<path class="st3" d="M187,280.5c0,0,0.1-0.1,0.1-0.1c0.1,0,0.3,0,0.6,0c0.4,0,0.6,0,0.7,0c0.1,0,0.2,0.1,0.2,0.2
		c0,0.1-0.1,0.4-0.2,1c-0.1,0.6-0.2,0.9-0.1,0.9c0,0,0.3,0,0.9,0c0.6,0,0.9,0,0.9,0c0,0,0.1,0.1,0.1,0.1c0,0.1,0,0.2,0,0.3
		c-0.1,0.2-0.1,0.3-0.2,0.3c-0.1,0-0.4,0.1-1,0.1c-0.6,0.1-0.9,0.1-0.9,0.1c0,0-0.1,0.3-0.2,0.9c-0.2,1.1-0.3,2-0.3,2.9
		c0,0.8,0,1.4,0.1,1.6c0.1,0.2,0.4,0.3,0.7,0.3c0.3,0,0.5-0.1,0.8-0.3c0.1-0.1,0.1-0.1,0.2-0.1c0,0,0.1,0,0.1,0
		c0.1,0.1,0.1,0.1,0.1,0.3c0,0.2-0.1,0.3-0.1,0.4c0,0.1-0.2,0.2-0.4,0.3c-0.6,0.5-1.2,0.7-1.6,0.7c-0.6,0-1-0.3-1.2-1
		c-0.1-0.2-0.1-0.6-0.2-1.2c0-0.6,0-1.1,0-1.5c0.1-0.9,0.2-1.8,0.3-2.6c0-0.2,0.1-0.4,0.1-0.4l0-0.1l-0.6,0c-0.3,0-0.5,0-0.6,0
		c-0.1,0-0.1-0.1,0-0.3c0.1-0.1,0.1-0.3,0.1-0.4c0-0.1,0-0.2,0-0.2c0,0,0.2-0.1,0.6-0.1c0.4-0.1,0.6-0.1,0.6-0.1
		c0,0,0.1-0.4,0.2-0.9c0.1-0.6,0.2-0.9,0.1-0.9C186.9,280.6,187,280.5,187,280.5"/>
	<path class="st3" d="M194.9,281.7c0.7-0.2,1.3-0.2,1.9,0.1l0.3,0.1l0.4-0.2c0.2-0.1,0.4-0.2,0.6-0.3c0.2,0,0.3,0,0.4,0
		c0,0.1,0,0.3,0,0.7c-0.1,0.8-0.2,1.6-0.3,2.5c-0.1,0.9-0.1,1.4-0.1,1.6c0,0.1,0,0.2,0,0.3c0,0.2,0,0.4,0,0.8
		c0.1,0.5,0.2,0.8,0.3,0.8c0.1,0.1,0.4,0,0.7-0.3c0.1-0.1,0.2-0.1,0.2-0.2c0,0,0.1,0,0.1,0c0.1,0,0.1,0.1,0.1,0.3c0,0.2,0,0.3,0,0.4
		c0,0.1-0.1,0.1-0.1,0.1c-0.1,0-0.2,0-0.3,0.1c-0.3,0.2-0.6,0.4-1,0.5c-0.4,0.1-0.7,0.1-1.1,0c-0.3-0.1-0.5-0.3-0.7-0.7l-0.1-0.2
		l-0.3,0.4c-0.2,0.2-0.3,0.4-0.4,0.5c-0.1,0.1-0.1,0.1-0.2,0.1c0,0-0.1,0-0.1,0c-0.3,0.2-0.6,0.3-1,0.4c-0.4,0.1-0.7,0.1-1,0
		c-0.3-0.1-0.6-0.3-1-0.7c-0.1-0.1-0.2-0.3-0.3-0.7c-0.1-0.4-0.2-0.7-0.3-1c-0.1-0.3-0.1-0.7,0-1.1c0-0.4,0.1-0.9,0.2-1.2
		c0.2-0.7,0.5-1.2,1-1.7c0.5-0.5,1-0.9,1.6-1.1C194.6,281.8,194.8,281.7,194.9,281.7 M195.9,282.5c-0.6-0.2-1.2,0.1-1.8,0.9
		c-0.2,0.2-0.3,0.4-0.4,0.5c-0.1,0.1-0.1,0.3-0.2,0.5c-0.1,0.3-0.2,0.7-0.2,1.2c-0.1,0.4,0,0.7,0,0.8c0,0,0,0.1,0,0.1
		c-0.1,0.1,0,0.5,0.2,0.9c0.2,0.4,0.4,0.7,0.6,0.8c0.3,0.2,0.5,0.2,0.8,0.1c0.3-0.1,0.6-0.4,0.9-0.8l0.3-0.4l0.1-0.5
		c0.2-1.6,0.3-2.7,0.4-3.3c0-0.2-0.1-0.3-0.2-0.5C196.3,282.7,196.1,282.6,195.9,282.5"/>
	<path class="st3" d="M202.7,280.5c0.4-0.2,0.9-0.2,1.3-0.2c0.4,0,0.8,0.1,1.1,0.2l0.2,0.1l0.6-0.3c0.4-0.2,0.6-0.3,0.7-0.3
		c0.1,0,0.2,0,0.2,0.1c0,0.1,0.1,0.5,0,1.1c0,2.6-0.1,4.6-0.3,5.9c-0.1,0.6-0.2,0.9-0.1,1c0,0.1,0,0.1-0.1,0.2c0,0-0.1,0.2-0.1,0.5
		c-0.1,0.3-0.2,0.5-0.2,0.6c-0.1,0.2-0.1,0.3-0.1,0.4c0,0,0,0.1-0.1,0.1c-0.1,0-0.2,0.1-0.3,0.3c-0.2,0.3-0.6,0.5-1,0.8
		c-0.4,0.2-0.9,0.4-1.4,0.5c-0.6,0.1-1.2,0.2-1.7,0c-0.5-0.1-0.8-0.3-0.8-0.7c0-0.1,0-0.2,0.1-0.4c0.1-0.1,0.1-0.3,0.2-0.4
		c0.2-0.2,0.4-0.3,0.6-0.3c0.2,0,0.5,0,0.6,0.1c0.2,0.1,0.4,0.4,0.5,0.7l0.1,0.3l0.2,0c0.4-0.1,0.7-0.3,1-0.6
		c0.3-0.3,0.5-0.7,0.7-1.2c0.1-0.2,0.2-0.6,0.2-1.1c0.1-0.5,0.1-0.7,0.1-0.8c0,0-0.1,0-0.2,0.1c-0.3,0.3-0.6,0.5-0.9,0.7
		c-0.3,0.2-0.7,0.3-0.9,0.4c-0.5,0.1-0.9,0-1.2-0.2c-0.7-0.4-1.1-1.2-1.3-2.3c-0.1-0.7-0.1-1.4,0-2.1c0.1-0.7,0.4-1.4,0.8-2
		c0.1-0.2,0.4-0.5,0.7-0.7C202.2,280.8,202.4,280.6,202.7,280.5 M204.4,281.1c-0.3-0.1-0.6,0-1.1,0.3c-0.1,0.1-0.3,0.2-0.4,0.4
		c-0.2,0.2-0.3,0.4-0.2,0.4c0,0,0,0.1-0.1,0.1c-0.1,0.1-0.2,0.3-0.3,0.7c-0.1,0.4-0.2,0.8-0.3,1.2c-0.1,0.7-0.1,1.2,0,1.8
		c0.2,0.7,0.4,1.1,0.9,1.2c0.1,0,0.2,0,0.3,0c0.1,0,0.2,0,0.2-0.1c0,0,0.1-0.1,0.2-0.1c0.2,0,0.5-0.2,1-0.7c0.3-0.3,0.5-0.4,0.5-0.4
		c0,0,0.1-0.4,0.1-1c0-0.7,0.1-1.2,0-1.7C205.1,282,204.8,281.3,204.4,281.1"/>
	<path class="st3" d="M216.1,277.6c0.7-0.3,1.3-0.4,1.9-0.2l0.3,0.1l0.3-0.3c0.2-0.2,0.4-0.3,0.6-0.4c0.2-0.1,0.3-0.1,0.4,0
		c0.1,0,0.1,0.3,0.1,0.7c0,0.8,0,1.6,0.1,2.5c0.1,0.9,0.1,1.4,0.1,1.6c0,0.1,0,0.2,0,0.3c0,0.2,0.1,0.4,0.2,0.8
		c0.2,0.5,0.3,0.7,0.5,0.8c0.2,0,0.4-0.1,0.7-0.4c0.1-0.1,0.1-0.2,0.2-0.2c0,0,0.1,0,0.1,0c0.1,0,0.1,0.1,0.2,0.3
		c0,0.2,0.1,0.3,0,0.4c0,0.1,0,0.1-0.1,0.1c-0.1,0-0.2,0.1-0.3,0.2c-0.2,0.3-0.6,0.5-1,0.7c-0.4,0.2-0.7,0.2-1.1,0.1
		c-0.3-0.1-0.6-0.3-0.8-0.5l-0.1-0.2l-0.3,0.4c-0.1,0.3-0.3,0.4-0.3,0.5c-0.1,0.1-0.1,0.1-0.2,0.1c0,0-0.1,0-0.1,0
		c-0.2,0.2-0.5,0.4-0.9,0.5c-0.4,0.1-0.7,0.2-0.9,0.1c-0.3-0.1-0.7-0.2-1.1-0.5c-0.1-0.1-0.3-0.3-0.4-0.6c-0.2-0.3-0.3-0.6-0.5-1
		c-0.1-0.3-0.2-0.7-0.2-1.1c0-0.4,0-0.9,0-1.2c0.1-0.7,0.3-1.3,0.7-1.9c0.4-0.6,0.8-1,1.4-1.4C215.8,277.7,216,277.6,216.1,277.6
		 M217.2,278.2c-0.6-0.1-1.2,0.3-1.6,1.2c-0.1,0.2-0.2,0.4-0.3,0.5c0,0.1-0.1,0.3-0.1,0.6c-0.1,0.3-0.1,0.7-0.1,1.2
		c0,0.4,0.1,0.7,0.2,0.8c0,0,0.1,0.1,0,0.1c0,0.1,0.1,0.4,0.3,0.9c0.2,0.3,0.5,0.6,0.7,0.7c0.3,0.1,0.5,0.1,0.8,0
		c0.3-0.1,0.5-0.5,0.8-0.9l0.3-0.5l0-0.5c-0.1-1.6-0.1-2.7-0.2-3.4c0-0.1-0.1-0.3-0.3-0.4C217.6,278.3,217.4,278.2,217.2,278.2"/>
	<path class="st3" d="M221.9,271.6c0,0,0.1,0,0.2-0.1c0.5-0.2,0.7-0.3,0.8-0.3s0.1,0.2,0.2,0.4c0,0,0,0.1,0,0.1
		c0,0.2,0.1,0.8,0.2,1.9c0.1,1,0.2,1.6,0.2,1.9l0,0.5l0.2-0.3c0.3-0.4,0.6-0.6,0.9-0.9c0.3-0.2,0.7-0.3,1-0.4c0.5,0,1,0.2,1.4,0.5
		c0.4,0.3,0.8,0.8,1,1.3c0.3,0.5,0.4,1.2,0.5,1.8c0.1,0.7,0,1.3-0.3,2c-0.2,0.6-0.6,1.2-1.1,1.6c-0.5,0.5-1,0.8-1.7,1
		c-0.5,0.1-0.9,0.2-1.3,0.1c-0.4-0.1-0.9-0.3-1.5-0.6l-0.2-0.1l0-0.7c0-0.6-0.1-1.5-0.2-2.6c-0.1-1.1-0.2-2.1-0.4-3
		c-0.2-1.1-0.4-1.9-0.5-2.5c-0.1-0.2-0.1-0.4-0.2-0.4c0-0.1-0.1-0.1-0.1-0.1c-0.1,0-0.3,0-0.5,0.1c-0.2,0.1-0.4,0.1-0.4,0.1
		c0,0-0.1-0.1-0.1-0.3c0-0.2,0-0.3,0-0.3C220.3,272.3,220.8,272,221.9,271.6 M224.9,276.1c0,0-0.1,0-0.1,0c0,0-0.1,0.1-0.3,0.2
		c-0.1,0.1-0.3,0.2-0.4,0.4c-0.2,0.2-0.3,0.3-0.4,0.4c0,0.1-0.1,0.4,0,0.9c0.1,0.9,0.1,1.7,0.2,2.4c0.1,0.7,0.2,1.1,0.2,1.1
		c0,0,0.2,0.1,0.5,0.2c0.5,0.2,1,0.2,1.4,0.1c0.2-0.1,0.3-0.2,0.5-0.3c0.5-0.6,0.8-1.5,0.7-2.7c0-0.3-0.1-0.7-0.3-1.2
		c-0.1-0.4-0.2-0.7-0.4-0.8c-0.1-0.2-0.3-0.3-0.5-0.5c-0.2-0.1-0.4-0.2-0.6-0.3c-0.2,0-0.4,0-0.5,0.1
		C225,276.1,225,276.1,224.9,276.1"/>
	<path class="st3" d="M236,269.4c0.1-0.1,0.1-0.2,0.3-0.2c0.3-0.1,0.4-0.1,0.5,0c0,0.1,0.1,0.6,0.2,1.5c0.2,1.3,0.3,2.3,0.4,3
		c0.1,0.7,0.3,1.2,0.5,1.7c0.2,0.4,0.4,0.7,0.7,0.9c0.2,0.1,0.5,0.1,0.8,0c0.2-0.1,0.3-0.1,0.3-0.1c0.1,0,0.1,0.1,0.1,0.2
		c0,0.1,0.1,0.2,0.1,0.3c0,0.1,0,0.1-0.1,0.1c0,0-0.4,0.2-1,0.5c-0.5,0.3-1.2,0.6-2.2,1c-0.9,0.4-1.4,0.6-1.4,0.6c0,0,0-0.1-0.1-0.3
		c0-0.1,0-0.2,0-0.3c0,0,0.2-0.1,0.5-0.3c0.4-0.2,0.7-0.5,0.8-0.9c0.1-0.2,0.1-0.7,0-1.4c-0.1-0.7-0.3-1.7-0.7-3.1
		c-0.2-0.6-0.2-1-0.3-1c0,0-0.1,0-0.2,0c-0.1,0-0.3,0.1-0.7,0.3l-0.8,0.4l-0.1-0.2c-0.1-0.2-0.1-0.3-0.1-0.4c0-0.1,0.2-0.2,0.4-0.3
		c0.4-0.2,0.7-0.4,1.1-0.7c0.3-0.3,0.5-0.6,0.7-0.8C235.8,269.6,235.9,269.5,236,269.4"/>
	<path class="st3" d="M240.5,264.3c0.2-0.1,0.4-0.3,0.9-0.5c0.4-0.2,0.7-0.3,1-0.4c1.1-0.2,1.9,0.2,2.4,1.1c0.3,0.4,0.4,0.8,0.4,1.3
		c0,0.7-0.2,1.4-0.8,2.2l-0.3,0.4l0.2,0c0.8-0.1,1.5,0.1,2,0.7c0.2,0.2,0.3,0.5,0.5,0.8c0.1,0.4,0.2,0.7,0.2,1
		c0,0.6-0.1,1.2-0.4,1.8c-0.3,0.6-0.7,1.1-1.1,1.5c-0.2,0.2-0.5,0.4-0.9,0.6s-0.7,0.3-1,0.4c-0.7,0.2-1.3,0.2-1.8,0
		c-0.7-0.2-1.3-0.7-1.6-1.4c-0.3-0.6-0.3-1.3-0.1-2c0.1-0.3,0.2-0.6,0.4-0.9c0.2-0.3,0.4-0.5,0.5-0.6l0.2-0.2l-0.5-0.1
		c-0.3-0.1-0.6-0.2-0.8-0.3c-0.2-0.1-0.4-0.3-0.6-0.5c-0.3-0.4-0.5-0.8-0.5-1.2c-0.1-0.6,0-1.2,0.3-1.8
		C239.4,265.4,239.8,264.8,240.5,264.3 M241.8,264.4c-0.4,0-0.7,0.2-1,0.6c-0.3,0.3-0.5,0.7-0.7,1.2c-0.1,0.5-0.1,0.9,0.1,1.2
		c0.3,0.7,1.1,1,2.4,1l0.5,0l0.1-0.2c0.1-0.3,0.2-0.6,0.3-1c0-0.4,0-0.8-0.1-1.1c-0.1-0.2-0.2-0.5-0.3-0.7
		C242.8,264.6,242.3,264.4,241.8,264.4 M242.3,270l-0.4,0.1c0,0-0.1,0.1-0.2,0.3c-0.1,0.2-0.1,0.3-0.2,0.5c-0.3,0.9-0.3,1.7,0.1,2.4
		c0.3,0.5,0.7,0.8,1.4,0.8c0.5,0,1-0.1,1.4-0.3c0.4-0.3,0.7-0.7,0.9-1.2c0.2-0.7,0.2-1.3-0.1-1.9c-0.1-0.2-0.2-0.4-0.4-0.5
		C244.2,269.8,243.4,269.7,242.3,270"/>
	<path class="st3" d="M250.7,271.2c0,0-0.1,0-0.1,0c-0.2,0-0.4,0-0.6-0.1c-0.3-0.2-0.6-0.4-0.7-0.7c-0.1-0.4,0-0.7,0.3-1.1
		c0.2-0.2,0.5-0.3,0.8-0.3c0.3,0,0.6,0.1,0.8,0.3c0.2,0.2,0.3,0.4,0.3,0.7c0,0.3-0.1,0.5-0.2,0.7c0,0.2-0.1,0.4-0.3,0.5
		C250.8,271.2,250.8,271.2,250.7,271.2C250.7,271.2,250.7,271.2,250.7,271.2 M249.8,270.7C249.8,270.7,249.8,270.7,249.8,270.7
		C249.8,270.7,249.8,270.7,249.8,270.7C249.8,270.7,249.8,270.7,249.8,270.7 M250,269.3C250.1,269.3,250.1,269.3,250,269.3
		C250.1,269.3,250.1,269.3,250,269.3L250,269.3c0.1,0,0.1,0,0.1,0l0,0l0,0c0,0,0,0,0,0c0,0,0,0,0-0.1c-0.1,0-0.2,0-0.2,0.1
		C250,269.2,250,269.3,250,269.3 M250.8,269.7c-0.1-0.2-0.1-0.3-0.2-0.5l0,0c0,0,0,0,0-0.1c0,0-0.1,0-0.1,0c0,0,0.1,0.1,0.2,0.2
		c0,0,0,0.1,0.1,0.1L250.8,269.7C250.7,269.7,250.7,269.7,250.8,269.7 M250.7,270.9C250.7,270.9,250.7,271,250.7,270.9
		C250.7,271,250.7,271,250.7,270.9c0.1,0,0.2,0,0.2-0.1c0,0,0,0,0,0C250.8,270.9,250.8,270.9,250.7,270.9
		C250.7,271,250.7,271,250.7,270.9 M250.9,269.4C250.9,269.4,250.9,269.3,250.9,269.4C250.9,269.3,250.8,269.3,250.9,269.4
		C250.9,269.3,250.9,269.4,250.9,269.4 M251,270.3C251,270.3,251,270.3,251,270.3L251,270.3C251,270.3,251,270.3,251,270.3"/>
	<path class="st3" d="M252.6,260C252.7,259.9,252.7,259.9,252.6,260c0.1-0.1,0.3-0.2,0.6-0.3c0.7-0.2,1.4-0.3,2.1-0.1
		c0.6,0.2,1.2,0.5,1.6,1c0.7,0.8,1,1.8,1.1,3c0.1,1.2-0.2,2.3-0.8,3.2c-0.3,0.5-0.7,1-1.2,1.3c-1,0.7-2,0.8-3,0.4
		c-0.5-0.2-0.9-0.5-1.3-1c-0.4-0.5-0.6-1-0.8-1.6c-0.2-0.6-0.3-1.2-0.3-1.9c0-0.7,0.1-1.3,0.4-1.9c0.1-0.4,0.4-0.8,0.6-1.1
		s0.5-0.6,0.8-0.8C252.5,260.1,252.6,260,252.6,260 M253.6,260.5c-0.5,0.1-0.9,0.4-1.3,1.1c-0.1,0.2-0.2,0.4-0.3,0.8
		c-0.1,0.3-0.1,0.6-0.1,0.8c0,0.6,0.2,1.3,0.4,2c0.2,0.7,0.5,1.2,0.9,1.6c0.2,0.2,0.4,0.4,0.6,0.5c0.2,0.1,0.4,0.2,0.7,0.2
		c0.6,0.1,1.1-0.2,1.5-0.9c0.6-1,0.5-2.3,0-3.8c-0.1-0.3-0.4-0.7-0.6-1.2c-0.2-0.3-0.3-0.5-0.4-0.6c-0.1-0.1-0.2-0.2-0.3-0.2
		C254.3,260.6,253.9,260.5,253.6,260.5"/>
	<path class="st3" d="M260.1,254.7C260.1,254.6,260.1,254.6,260.1,254.7c0.1-0.1,0.3-0.2,0.5-0.3c0.7-0.3,1.4-0.4,2-0.3
		c0.6,0.1,1.2,0.4,1.7,0.9c0.7,0.7,1.1,1.7,1.3,2.9c0.1,1.2-0.1,2.3-0.6,3.3c-0.3,0.6-0.7,1-1.1,1.3c-1,0.8-2,1-2.9,0.6
		c-0.5-0.2-0.9-0.5-1.3-0.9c-0.4-0.4-0.7-0.9-0.9-1.5c-0.2-0.6-0.4-1.2-0.4-1.9c0-0.7,0-1.3,0.2-1.9c0.1-0.4,0.3-0.8,0.6-1.2
		c0.3-0.4,0.5-0.7,0.7-0.9C260,254.8,260.1,254.7,260.1,254.7 M261,255.2c-0.5,0.1-0.9,0.5-1.2,1.2c-0.1,0.2-0.2,0.5-0.2,0.8
		c-0.1,0.3-0.1,0.6,0,0.8c0.1,0.6,0.3,1.3,0.5,2c0.3,0.7,0.6,1.2,1,1.6c0.2,0.2,0.4,0.4,0.6,0.5c0.2,0.1,0.4,0.1,0.7,0.2
		c0.6,0,1.1-0.3,1.4-1c0.5-1,0.4-2.3-0.3-3.8c-0.2-0.3-0.4-0.7-0.7-1.1c-0.2-0.3-0.4-0.5-0.4-0.5c-0.1-0.1-0.2-0.1-0.3-0.2
		C261.7,255.2,261.4,255.1,261,255.2"/>
	<path class="st3" d="M266.5,246.6c0-0.1,0.1-0.2,0.2-0.3c0.1-0.1,0.4-0.4,0.9-0.9c0.9-0.8,1.4-1.3,1.6-1.4l0.5-0.4l0.1,0.2
		c0.1,0.1,0.1,0.2,0.1,0.3c0,0.1-0.1,0.2-0.2,0.3c-0.4,0.4-0.5,0.8-0.4,1.1c0,0.1,0.2,0.4,0.6,1c0.8,1.3,1.4,2.4,1.9,3.2
		c0.3,0.6,0.5,1,0.6,1.2c0.1,0.2,0.3,0.4,0.5,0.6c0.2,0.2,0.4,0.4,0.6,0.5c0.2,0.1,0.4,0.1,0.6,0.1c0.2,0,0.4,0,0.6-0.1
		c0.6-0.3,1-0.7,1.3-1.3c0.3-0.6,0.5-1.2,0.5-1.9c0-0.3,0-0.5-0.1-0.8c-0.1-0.2-0.2-0.6-0.5-1.1c-0.4-0.9-0.9-1.8-1.4-2.6
		c-0.5-0.8-0.9-1.4-1.3-1.8c-0.2-0.2-0.3-0.3-0.4-0.4c-0.1-0.1-0.1-0.1-0.2-0.1c-0.2,0-0.5,0.1-0.8,0.3c-0.2,0.2-0.3,0.2-0.4,0.2
		c0,0-0.1,0-0.2-0.1c0,0,0,0,0,0c-0.1-0.1-0.1-0.2,0-0.4c0.1-0.1,0.5-0.5,1.2-1.2c0.1-0.1,0.2-0.2,0.2-0.2c0.1-0.1,0.2-0.2,0.3-0.3
		c0.7-0.6,1-1,1.2-1c0.1-0.1,0.2-0.1,0.3,0.1c0,0,0,0.1,0,0.1c0.1,0.1,0.2,0.2,0.1,0.3c0,0-0.1,0.1-0.2,0.2c-0.3,0.3-0.4,0.6-0.4,1
		c0,0.4,0.1,0.8,0.3,1.3c0.2,0.5,0.6,1.1,1.2,2c0.9,1.4,1.5,2.5,1.8,3.3c0.5,1.4,0.4,2.7-0.3,3.8c-0.2,0.4-0.6,0.7-1,1.1
		c-0.4,0.4-0.8,0.7-1.1,0.9c-1.1,0.6-2.2,0.4-3.3-0.8c-0.5-0.6-1.2-1.7-2-3.2c-0.3-0.7-0.6-1.2-0.8-1.5c-0.2-0.4-0.5-0.7-0.7-0.9
		c-0.2-0.2-0.4-0.3-0.6-0.3c-0.1,0-0.2,0.1-0.4,0.3c0,0-0.1,0.1-0.1,0.1c0,0-0.1,0.1-0.1,0.1c0,0,0,0-0.1,0c0,0-0.1,0-0.1-0.1
		c-0.1-0.1-0.1-0.1-0.2-0.2C266.5,246.8,266.5,246.7,266.5,246.6"/>
	<path class="st3" d="M275.4,236.3c0.6-0.8,0.9-1.2,1-1.2c0.1,0,0.2,0.2,0.5,0.6c0.2,0.3,0.6,0.9,1.2,1.6c0.5,0.7,0.9,1.2,1,1.4
		c0.1,0.2,0.2,0.3,0.2,0.3c0,0,0.1-0.2,0.2-0.5c0.1-0.4,0.2-0.7,0.3-1c0.5-1.4,1.2-1.9,2-1.6c0.3,0.1,0.6,0.3,0.9,0.7
		c0.3,0.3,0.7,0.9,1.3,1.7c0.4,0.6,0.7,1,0.7,1c0.3,0.4,0.6,0.7,0.7,0.8c0.2,0.1,0.3,0.1,0.4,0.1c0.1-0.1,0.2-0.2,0.3-0.5
		c0.1-0.3,0.2-0.4,0.2-0.4c0.1,0,0.2,0.1,0.3,0.3l0.2,0.3l-0.1,0.3c-0.1,0.5-0.3,0.9-0.6,1.2c-0.3,0.4-0.6,0.6-0.8,0.6
		c-0.3,0-0.6-0.1-0.9-0.5c-0.2-0.2-0.4-0.4-0.6-0.6c-0.2-0.2-0.5-0.6-0.9-1.2c-0.6-0.8-1-1.4-1.3-1.7c-0.3-0.3-0.5-0.4-0.7-0.3
		c0,0-0.1,0-0.1,0c-0.1-0.1-0.1,0-0.2,0.1c-0.1,0.1-0.2,0.2-0.3,0.4c-0.1,0.2-0.2,0.4-0.2,0.7c-0.1,0.3-0.1,0.5-0.1,0.7
		c0,0.2,0,0.3,0,0.5c0,0.2,0.1,0.3,0.2,0.4c0.1,0.1,0.1,0.1,0.1,0.2c0,0.1,0,0.1,0.1,0.3c0.1,0.1,0.2,0.2,0.2,0.3
		c0.1,0.1,0.2,0.3,0.3,0.5c0.2,0.2,0.3,0.4,0.4,0.4c0.1,0.1,0.2,0.2,0.1,0.2c0,0,0,0.1,0,0.1c0,0,0.1,0.1,0.1,0.1
		c0,0.1,0.2,0.3,0.4,0.7c0.3,0.4,0.4,0.6,0.5,0.6c0.1,0,0.1,0.1,0.1,0.1c0,0.1,0.1,0.2,0.2,0.4c0.1,0.2,0.2,0.3,0.2,0.3
		c0,0.1-0.1,0.2-0.3,0.5c-0.2,0.2-0.4,0.4-0.4,0.4s-0.1,0-0.2,0c-0.3-0.3-0.4-0.5-0.4-0.5c0-0.1-0.9-1.3-2.6-3.6
		c-1.7-2.3-2.7-3.6-3-3.9c-0.1-0.1-0.2-0.2-0.2-0.2c0,0-0.1,0-0.1,0c-0.1,0-0.2,0.1-0.4,0.3c-0.2,0.2-0.3,0.2-0.4,0.2
		c-0.1,0-0.3-0.1-0.4-0.4c0-0.1,0-0.1,0-0.1c0,0,0.1-0.1,0.2-0.2C274.9,236.9,275.1,236.6,275.4,236.3 M282,243.5
		C282,243.5,282,243.5,282,243.5C281.9,243.5,281.9,243.5,282,243.5c-0.1,0.1-0.1,0.2-0.1,0.2c0,0,0,0,0.1-0.1
		C282,243.6,282,243.6,282,243.5 M286,241.2c0,0-0.1,0-0.2,0.1c-0.1,0.1-0.1,0.1-0.1,0.2c0.1,0,0.1,0,0.2-0.1
		C286,241.3,286,241.2,286,241.2"/>
	<path class="st3" d="M285.6,229.9c0.1-0.2,0.2-0.3,0.4-0.4c0.2-0.1,0.3-0.1,0.5-0.1c0.3,0,0.6,0.2,0.9,0.6c0.3,0.4,0.5,0.8,0.5,1.2
		c0,0.2,0,0.5-0.2,0.6c-0.2,0.3-0.5,0.4-0.8,0.3c-0.2,0-0.5-0.2-0.7-0.5c-0.1-0.2-0.2-0.3-0.2-0.2c0,0-0.1,0.2-0.1,0.4
		c0,0.3-0.1,0.5-0.1,0.7c0,0.4,0,0.7,0,0.8c0,0.1,0.1,0.3,0.4,0.5c0.4,0.6,0.7,0.9,0.9,1c0.1,0,0.1,0.1,0.1,0.2
		c0,0.1,0.2,0.2,0.4,0.5c0.2,0.3,0.4,0.4,0.4,0.5c0.1,0.1,0.1,0.1,0.1,0.2c0,0,0.1,0.1,0.2,0.3c0.5,0.6,0.7,1,0.7,1.1
		c0,0.1-0.2,0.3-0.4,0.6c-0.3,0.3-0.5,0.5-0.5,0.5c-0.1,0.1-0.3,0-0.5-0.3c-0.3-0.4-0.8-1.1-1.7-2.1c-0.8-0.9-1.5-1.6-2-2.1
		c-0.1-0.1-0.2-0.2-0.2-0.2c0,0-0.1,0-0.1,0c-0.1,0-0.2,0.2-0.2,0.4c-0.1,0.3-0.2,0.4-0.2,0.5c0,0.1-0.1,0.1-0.2,0.1
		c0,0-0.1-0.1-0.2-0.2c-0.1-0.1-0.1-0.2-0.2-0.3c0-0.1,0-0.1,0.1-0.1c0.1,0,0.1-0.2,0.2-0.5c0.2-0.9,0.6-1.5,1.1-1.6
		c0.1,0,0.3,0,0.5,0c0.2,0,0.4,0.1,0.5,0.2l0.2,0.1l0-0.5c0-0.5,0-1,0.1-1.3C285.3,230.5,285.5,230.2,285.6,229.9 M288.6,237.8
		c0,0-0.1,0-0.1,0.1c0,0,0,0,0,0l0.1-0.1C288.6,237.9,288.7,237.8,288.6,237.8"/>
</g>
</svg>
